<svg xmlns="http://www.w3.org/2000/svg" xmlns:xlink="http://www.w3.org/1999/xlink" xmlns:lucid="lucid" width="1085.91" height="1118"><g transform="translate(-10 0)" lucid:page-tab-id="FnlgNvTfBAv5X"><path d="M0 0h1120v1120H0z" fill="#fff"/><path d="M515 320h109.33v18.67H515z" fill="none"/><use xlink:href="#a" transform="matrix(1,0,0,1,515,320) translate(23.8671875 15.580729166666666)"/><path d="M523.33 379.82v-88.17" stroke="#000" stroke-width="2" fill="none"/><path d="M524.33 379.8v1.02h-2v-1.02z"/><path d="M523.33 269.13l12.73 21.52H510.6z" stroke="#000" stroke-width="2" fill="#fff"/><path d="M672.5 486.5l33-.17h35.6l32.1.16M672.52 486.5h-1.02" stroke="#000" stroke-width="2" fill="none"/><path d="M755.08 497.1l18.12-10.6-18.02-10.8M375.96 722.5l76.26-.5h142.22l74.06.5" stroke="#000" stroke-width="2" fill="none"/><path d="M376 723.5l-4.04.02v-.02h3v-2h1.02zM669.5 721.5v2h-1.03v-2z"/><path d="M523.33 891V579.48M523.33 890.97V892" stroke="#000" stroke-width="2" fill="none"/><path d="M523.33 556.97l12.73 21.5H510.6z" stroke="#000" stroke-width="2" fill="#fff"/><path d="M375.96 892H668.5" stroke="#000" stroke-width="2" fill="none"/><path d="M375.98 893h-1.02v-2h1.02zM669.5 893h-1.03v-2h1.03z"/><path d="M935 250h109.33v18.67H935z" fill="none"/><use xlink:href="#b" transform="matrix(1,0,0,1,935,250) translate(13.003472222222229 15.580729166666666)"/><path d="M670 445h109.33v18.67H670z" fill="none"/><use xlink:href="#b" transform="matrix(1,0,0,1,670,445) translate(13.003472222222229 15.580729166666666)"/><path d="M515 640h109.33v18.67H515z" fill="none"/><use xlink:href="#a" transform="matrix(1,0,0,1,515,640) translate(23.8671875 15.580729166666666)"/><g filter="url(#c)"><path d="M365 20h320v248H365z" fill="#fff"/><path d="M365 94h320v34H365zM365 186h320v82H365z" fill="#e6e6e6"/><path d="M365 20h320v40H365z" fill="#ccc"/><path d="M365 20h320v248H365zM365 60h320" stroke="#666" fill="none"/><use xlink:href="#d" transform="matrix(1,0,0,1,370,62.5) translate(0 18.5)"/><use xlink:href="#e" transform="matrix(1,0,0,1,370,62.5) translate(55.5 18.5)"/><use xlink:href="#f" transform="matrix(1,0,0,1,370,96.5) translate(0 18.5)"/><use xlink:href="#e" transform="matrix(1,0,0,1,370,96.5) translate(102.05555555555556 18.5)"/><g><use xlink:href="#g" transform="matrix(1,0,0,1,370,130.5) translate(0 18.5)"/><use xlink:href="#h" transform="matrix(1,0,0,1,370,130.5) translate(0 42.5)"/><use xlink:href="#i" transform="matrix(1,0,0,1,370,130.5) translate(12.166666666666666 42.5)"/><use xlink:href="#e" transform="matrix(1,0,0,1,370,130.5) translate(49.888888888888886 42.5)"/></g><g><use xlink:href="#j" transform="matrix(1,0,0,1,370,188.5) translate(0 18.5)"/><use xlink:href="#k" transform="matrix(1,0,0,1,370,188.5) translate(39.94444444444444 18.5)"/><use xlink:href="#l" transform="matrix(1,0,0,1,370,188.5) translate(78.83333333333333 18.5)"/><use xlink:href="#m" transform="matrix(1,0,0,1,370,188.5) translate(198.61111111111111 18.5)"/><use xlink:href="#n" transform="matrix(1,0,0,1,370,188.5) translate(0 42.5)"/><use xlink:href="#o" transform="matrix(1,0,0,1,370,188.5) translate(11.11111111111111 42.5)"/><use xlink:href="#p" transform="matrix(1,0,0,1,370,188.5) translate(0 66.5)"/><use xlink:href="#q" transform="matrix(1,0,0,1,370,188.5) translate(107.61111111111111 66.5)"/><use xlink:href="#r" transform="matrix(1,0,0,1,370,188.5) translate(173.05555555555554 66.5)"/></g></g><path d="M365.52 21.3H685v40H365.52z" stroke="#666" fill="#114b7c"/><use xlink:href="#s" transform="matrix(1,0,0,1,385.51964923676536,21.301255722815203) translate(81.28888888888889 25.6)"/><g filter="url(#t)"><path d="M826 71.3h197.73v142H826z" fill="#fff"/><path d="M826 145.3h197.73v34H826z" fill="#e6e6e6"/><path d="M826 71.3h197.73v40H826z" fill="#ccc"/><path d="M826 71.3h197.73v142H826zM826 111.3h197.73" stroke="#666" fill="none"/><use xlink:href="#d" transform="matrix(1,0,0,1,831,113.80125572281509) translate(0 18.5)"/><use xlink:href="#e" transform="matrix(1,0,0,1,831,113.80125572281509) translate(55.5 18.5)"/><use xlink:href="#f" transform="matrix(1,0,0,1,831,147.80125572281509) translate(0 18.5)"/><use xlink:href="#e" transform="matrix(1,0,0,1,831,147.80125572281509) translate(102.05555555555556 18.5)"/><g><use xlink:href="#u" transform="matrix(1,0,0,1,831,181.80125572281509) translate(0 18.5)"/><use xlink:href="#e" transform="matrix(1,0,0,1,831,181.80125572281509) translate(123.16666666666669 18.5)"/></g></g><path d="M826 70h197.4v40H826z" stroke="#666" fill="#114b7c"/><use xlink:href="#v" transform="matrix(1,0,0,1,846,70) translate(41.205555555555556 25.6)"/><g filter="url(#w)"><path d="M775 295h300.9v346H775z" fill="#fff"/><path d="M775 369h300.9v34H775zM775 437h300.9v34H775zM775 505h300.9v34H775zM775 573h300.9v34H775z" fill="#e6e6e6"/><path d="M775 295h300.9v40H775z" fill="#ccc"/><path d="M775 295h300.9v346H775zM775 335h300.9" stroke="#666" fill="none"/><use xlink:href="#d" transform="matrix(1,0,0,1,780,337.5) translate(0 18.5)"/><use xlink:href="#e" transform="matrix(1,0,0,1,780,337.5) translate(55.5 18.5)"/><use xlink:href="#f" transform="matrix(1,0,0,1,780,371.5) translate(0 18.5)"/><use xlink:href="#e" transform="matrix(1,0,0,1,780,371.5) translate(102.05555555555556 18.5)"/><use xlink:href="#x" transform="matrix(1,0,0,1,780,405.5) translate(0 18.5)"/><use xlink:href="#y" transform="matrix(1,0,0,1,780,405.5) translate(63.27777777777777 18.5)"/><use xlink:href="#z" transform="matrix(1,0,0,1,780,439.5) translate(0 18.5)"/><use xlink:href="#e" transform="matrix(1,0,0,1,780,439.5) translate(69.77777777777777 18.5)"/><use xlink:href="#A" transform="matrix(1,0,0,1,780,473.5) translate(0 18.5)"/><use xlink:href="#e" transform="matrix(1,0,0,1,780,473.5) translate(226.33333333333331 18.5)"/><g><use xlink:href="#B" transform="matrix(1,0,0,1,780,507.5) translate(0 18.5)"/><use xlink:href="#e" transform="matrix(1,0,0,1,780,507.5) translate(74.33333333333334 18.5)"/></g><g><use xlink:href="#C" transform="matrix(1,0,0,1,780,541.5) translate(0 18.5)"/><use xlink:href="#e" transform="matrix(1,0,0,1,780,541.5) translate(96.55555555555556 18.5)"/></g><g><use xlink:href="#D" transform="matrix(1,0,0,1,780,575.5) translate(0 18.5)"/><use xlink:href="#e" transform="matrix(1,0,0,1,780,575.5) translate(42.166666666666664 18.5)"/></g><g><use xlink:href="#E" transform="matrix(1,0,0,1,780,609.5) translate(0 18.5)"/><use xlink:href="#e" transform="matrix(1,0,0,1,780,609.5) translate(45.44444444444444 18.5)"/></g></g><path d="M775.5 296.3h300.4v40H775.5z" stroke="#666" fill="#114b7c"/><use xlink:href="#F" transform="matrix(1,0,0,1,795.4886527912544,296.3012557228152) translate(20.066666666666663 25.6)"/><use xlink:href="#G" transform="matrix(1,0,0,1,795.4886527912544,296.3012557228152) translate(138.7888888888889 25.6)"/><path d="M925.45 293.5L925 250l-.13-34.23" stroke="#000" stroke-width="2" fill="none"/><path d="M926.46 294.5h-2v-1.02l2-.02z"/><path d="M935.63 233.8l-10.76-18.03-10.62 18.1" stroke="#000" stroke-width="2" fill="none"/><g filter="url(#H)"><path d="M375 380h300.42v176H375z" fill="#fff"/><path d="M375 454h300.42v34H375zM375 522h300.42v34H375z" fill="#e6e6e6"/><path d="M375 380h300.42v40H375z" fill="#ccc"/><path d="M375 380h300.42v176H375zM375 420h300.42" stroke="#666" fill="none"/><use xlink:href="#I" transform="matrix(1,0,0,1,380,422.5) translate(0 18.5)"/><use xlink:href="#r" transform="matrix(1,0,0,1,380,422.5) translate(43.27777777777778 18.5)"/><use xlink:href="#J" transform="matrix(1,0,0,1,380,456.5) translate(0 18.5)"/><use xlink:href="#K" transform="matrix(1,0,0,1,380,456.5) translate(87.66666666666669 18.5)"/><g><use xlink:href="#L" transform="matrix(1,0,0,1,380,490.5) translate(0 18.5)"/><use xlink:href="#e" transform="matrix(1,0,0,1,380,490.5) translate(186.33333333333331 18.5)"/></g><g><use xlink:href="#M" transform="matrix(1,0,0,1,380,524.5) translate(0 18.5)"/><use xlink:href="#N" transform="matrix(1,0,0,1,380,524.5) translate(142.05555555555557 18.5)"/></g></g><path d="M375.5 381.32H675.4v40.6H375.5z" stroke="#666" fill="#114b7c"/><use xlink:href="#O" transform="matrix(1,0,0,1,395.48786055261746,381.3212088843783) translate(36.73333333333335 26.1)"/><g filter="url(#P)"><path d="M30 820h344.46v278H30z" fill="#fff"/><path d="M30 894h344.46v34H30zM30 962h344.46v34H30zM30 1030h344.46v34H30z" fill="#e6e6e6"/><path d="M30 820h344.46v40H30z" fill="#ccc"/><path d="M30 820h344.46v278H30zM30 860h344.46" stroke="#666" fill="none"/><use xlink:href="#Q" transform="matrix(1,0,0,1,35,862.5) translate(0 18.5)"/><use xlink:href="#r" transform="matrix(1,0,0,1,35,862.5) translate(155.49999999999997 18.5)"/><use xlink:href="#R" transform="matrix(1,0,0,1,35,896.5) translate(0 18.5)"/><use xlink:href="#r" transform="matrix(1,0,0,1,35,896.5) translate(163.16666666666666 18.5)"/><use xlink:href="#S" transform="matrix(1,0,0,1,35,930.5) translate(0 18.5)"/><use xlink:href="#r" transform="matrix(1,0,0,1,35,930.5) translate(258.61111111111114 18.5)"/><use xlink:href="#T" transform="matrix(1,0,0,1,35,964.5) translate(0 18.5)"/><use xlink:href="#r" transform="matrix(1,0,0,1,35,964.5) translate(255.22222222222223 18.5)"/><g><use xlink:href="#U" transform="matrix(1,0,0,1,35,998.5) translate(0 18.5)"/><use xlink:href="#r" transform="matrix(1,0,0,1,35,998.5) translate(254.11111111111111 18.5)"/></g><g><use xlink:href="#V" transform="matrix(1,0,0,1,35,1032.5) translate(0 18.5)"/><use xlink:href="#r" transform="matrix(1,0,0,1,35,1032.5) translate(276.3333333333333 18.5)"/></g><g><use xlink:href="#W" transform="matrix(1,0,0,1,35,1066.5) translate(0 18.5)"/><use xlink:href="#r" transform="matrix(1,0,0,1,35,1066.5) translate(265.1111111111111 18.5)"/></g></g><path d="M30.5 821.3h343.96V860H30.5z" stroke="#666" fill="#114b7c"/><use xlink:href="#X" transform="matrix(1,0,0,1,50.488652791254424,821.3012557228151) translate(50.622222222222234 25.1)"/><g filter="url(#Y)"><path d="M30 683h344.46v74H30z" fill="#fff"/><path d="M30 683h344.46v40H30z" fill="#ccc"/><path d="M30 683h344.46v74H30zM30 723h344.46" stroke="#666" fill="none"/></g><path d="M30.5 684.3h343.96V723H30.5z" stroke="#666" fill="#114b7c"/><use xlink:href="#Z" transform="matrix(1,0,0,1,50.488652791254424,684.3012557228151) translate(8.483333333333377 25.1)"/><g filter="url(#Y)"><path d="M670 683h344.46v74H670z" fill="#fff"/><path d="M670 683h344.46v40H670z" fill="#ccc"/><path d="M670 683h344.46v74H670zM670 723h344.46" stroke="#666" fill="none"/></g><path d="M671.02 684.3H1015V723H671z" stroke="#666" fill="#114b7c"/><use xlink:href="#aa" transform="matrix(1,0,0,1,691.022694417491,684.3012557228151) translate(7.761111111111148 25.1)"/><g filter="url(#ab)"><path d="M670 820h344.46v142H670z" fill="#fff"/><path d="M670 894h344.46v34H670z" fill="#e6e6e6"/><path d="M670 820h344.46v40H670z" fill="#ccc"/><path d="M670 820h344.46v142H670zM670 860h344.46" stroke="#666" fill="none"/><use xlink:href="#ac" transform="matrix(1,0,0,1,675,862.5) translate(0 18.5)"/><use xlink:href="#r" transform="matrix(1,0,0,1,675,862.5) translate(115.38888888888891 18.5)"/><use xlink:href="#ad" transform="matrix(1,0,0,1,675,896.5) translate(0 18.5)"/><use xlink:href="#r" transform="matrix(1,0,0,1,675,896.5) translate(142.05555555555554 18.5)"/><g><use xlink:href="#ae" transform="matrix(1,0,0,1,675,930.5) translate(0 18.5)"/><use xlink:href="#r" transform="matrix(1,0,0,1,675,930.5) translate(247.61111111111111 18.5)"/></g></g><path d="M670.5 821.3h343.96V860H670.5z" stroke="#666" fill="#114b7c"/><use xlink:href="#af" transform="matrix(1,0,0,1,690.4886527912545,821.3012557228151) translate(49.900000000000006 25.1)"/><defs><path d="M87-548c0-338 159-553 484-554 325-2 484 204 477 599H276c-1 227 88 385 302 388 146 2 246-65 283-166l158 45C954-65 807 20 578 20 240 20 87-193 87-548zm775-93c-19-206-90-328-294-328-185 0-285 140-290 328h584" id="ag"/><path d="M801 0L510-444 217 0H23l385-556-367-526h199l270 421 268-421h201L612-558 1002 0H801" id="ah"/><path d="M336-268c2 98 22 139 114 141 24 0 59-5 104-14V-8C495 8 434 16 372 16c-144 0-216-82-216-245v-722H31v-131h132l53-242h120v242h200v131H336v683" id="ai"/><path d="M663-1102c251 0 343 119 343 381V0H825v-686c0-183-40-279-223-277-184 2-280 141-280 336V0H142c-3-345 6-754-6-1082h170c5 68 6 94 8 185h3c76-134 157-205 346-205" id="aj"/><path d="M835 0c-5-29-11-137-10-174h-4C759-45 663 20 484 20 177 20 86-201 86-536c0-377 133-566 398-566 178 1 273 67 339 188-4-187-1-380-2-570h180v1261c0 113 2 187 6 223H835zm-14-554c0-255-58-415-289-415-91 0-151 37-196 101-76 109-77 543-1 651 44 63 105 98 195 98 235 0 291-173 291-435" id="ak"/><path d="M513-963c-139 1-238 29-238 149 0 72 41 100 95 127 55 27 348 94 404 125 101 56 176 118 176 263C950-73 758 21 511 20 254 19 107-55 57-254l159-31c34 123 133 168 295 168 156 0 264-34 264-168 0-156-183-165-315-204-171-51-245-68-323-172-26-35-37-82-37-135 0-220 172-304 413-303 232 1 379 74 418 265l-162 20c-23-104-122-150-256-149" id="al"/><g id="a"><use transform="matrix(0.008680555555555556,0,0,0.008680555555555556,0,0)" xlink:href="#ag"/><use transform="matrix(0.008680555555555556,0,0,0.008680555555555556,9.887152777777779,0)" xlink:href="#ah"/><use transform="matrix(0.008680555555555556,0,0,0.008680555555555556,18.776041666666668,0)" xlink:href="#ai"/><use transform="matrix(0.008680555555555556,0,0,0.008680555555555556,23.71527777777778,0)" xlink:href="#ag"/><use transform="matrix(0.008680555555555556,0,0,0.008680555555555556,33.60243055555556,0)" xlink:href="#aj"/><use transform="matrix(0.008680555555555556,0,0,0.008680555555555556,43.489583333333336,0)" xlink:href="#ak"/><use transform="matrix(0.008680555555555556,0,0,0.008680555555555556,53.376736111111114,0)" xlink:href="#al"/></g><path fill="#08233f" d="M318-861c55-157 83-241 257-241 24 0 48 3 73 10v165c-24-7-56-10-96-10-75 0-132 33-171 97s-59 156-59 276V0H142c-3-364 6-725-6-1082h170c5 123 8 196 8 221h4" id="am"/><path fill="#08233f" d="M87-548c0-338 159-553 484-554 325-2 484 204 477 599H276c-1 227 88 385 302 388 146 2 246-65 283-166l158 45C954-65 807 20 578 20 240 20 87-193 87-548zm775-93c-19-206-90-328-294-328-185 0-285 140-290 328h584" id="an"/><path fill="#08233f" d="M492-1341c-103 3-130 49-131 162v97h211v131H361V0H181v-951H29v-131h152v-122c0-192 78-276 264-278 50 0 92 4 127 12v137c-30-5-57-8-80-8" id="ao"/><path fill="#08233f" d="M663-1102c251 0 343 119 343 381V0H825v-686c0-183-40-279-223-277-184 2-280 141-280 336V0H142c-3-345 6-754-6-1082h170c5 68 6 94 8 185h3c76-134 157-205 346-205" id="ap"/><path fill="#08233f" d="M779-765c-19-119-93-196-233-196-95 0-164 32-207 95s-64 170-64 320c0 144 23 251 68 320s114 104 205 104c139 0 224-79 240-212l182 12C946-119 781 22 553 20 230 17 87-201 87-542c0-338 145-557 464-560 225-1 380 129 413 323" id="aq"/><path fill="#08233f" d="M513-963c-139 1-238 29-238 149 0 72 41 100 95 127 55 27 348 94 404 125 101 56 176 118 176 263C950-73 758 21 511 20 254 19 107-55 57-254l159-31c34 123 133 168 295 168 156 0 264-34 264-168 0-156-183-165-315-204-171-51-245-68-323-172-26-35-37-82-37-135 0-220 172-304 413-303 232 1 379 74 418 265l-162 20c-23-104-122-150-256-149" id="ar"/><g id="b"><use transform="matrix(0.008680555555555556,0,0,0.008680555555555556,0,0)" xlink:href="#am"/><use transform="matrix(0.008680555555555556,0,0,0.008680555555555556,5.920138888888889,0)" xlink:href="#an"/><use transform="matrix(0.008680555555555556,0,0,0.008680555555555556,15.807291666666668,0)" xlink:href="#ao"/><use transform="matrix(0.008680555555555556,0,0,0.008680555555555556,20.74652777777778,0)" xlink:href="#an"/><use transform="matrix(0.008680555555555556,0,0,0.008680555555555556,30.633680555555557,0)" xlink:href="#am"/><use transform="matrix(0.008680555555555556,0,0,0.008680555555555556,36.55381944444444,0)" xlink:href="#an"/><use transform="matrix(0.008680555555555556,0,0,0.008680555555555556,46.44097222222222,0)" xlink:href="#ap"/><use transform="matrix(0.008680555555555556,0,0,0.008680555555555556,56.328125,0)" xlink:href="#aq"/><use transform="matrix(0.008680555555555556,0,0,0.008680555555555556,65.21701388888889,0)" xlink:href="#an"/><use transform="matrix(0.008680555555555556,0,0,0.008680555555555556,75.10416666666666,0)" xlink:href="#ar"/></g><path d="M117-194c89-4 53 116 60 194h-32v-121c0-31-8-49-39-48C34-167 62-67 57 0H25l-1-190h30c1 10-1 24 2 32 11-22 29-35 61-36" id="as"/><path d="M141-36C126-15 110 5 73 4 37 3 15-17 15-53c-1-64 63-63 125-63 3-35-9-54-41-54-24 1-41 7-42 31l-33-3c5-37 33-52 76-52 45 0 72 20 72 64v82c-1 20 7 32 28 27v20c-31 9-61-2-59-35zM48-53c0 20 12 33 32 33 41-3 63-29 60-74-43 2-92-5-92 41" id="at"/><path d="M210-169c-67 3-38 105-44 169h-31v-121c0-29-5-50-35-48C34-165 62-65 56 0H25l-1-190h30c1 10-1 24 2 32 10-44 99-50 107 0 11-21 27-35 58-36 85-2 47 119 55 194h-31v-121c0-29-5-49-35-48" id="au"/><path d="M100-194c63 0 86 42 84 106H49c0 40 14 67 53 68 26 1 43-12 49-29l28 8c-11 28-37 45-77 45C44 4 14-33 15-96c1-61 26-98 85-98zm52 81c6-60-76-77-97-28-3 7-6 17-6 28h103" id="av"/><g id="d"><use transform="matrix(0.05555555555555555,0,0,0.05555555555555555,0,0)" xlink:href="#as"/><use transform="matrix(0.05555555555555555,0,0,0.05555555555555555,11.11111111111111,0)" xlink:href="#at"/><use transform="matrix(0.05555555555555555,0,0,0.05555555555555555,22.22222222222222,0)" xlink:href="#au"/><use transform="matrix(0.05555555555555555,0,0,0.05555555555555555,38.83333333333333,0)" xlink:href="#av"/></g><path d="M87 75C49 33 22-17 22-94c0-76 28-126 65-167h31c-38 41-64 92-64 168S80 34 118 75H87" id="aw"/><path d="M59-47c-2 24 18 29 38 22v24C64 9 27 4 27-40v-127H5v-23h24l9-43h21v43h35v23H59v120" id="ax"/><path d="M141 0L90-78 38 0H4l68-98-65-92h35l48 74 47-74h35l-64 92 68 98h-35" id="ay"/><path d="M33-261c38 41 65 92 65 168S71 34 33 75H2C39 34 66-17 66-93S39-220 2-261h31" id="az"/><g id="e"><use transform="matrix(0.05555555555555555,0,0,0.05555555555555555,0,0)" xlink:href="#aw"/><use transform="matrix(0.05555555555555555,0,0,0.05555555555555555,6.611111111111111,0)" xlink:href="#ax"/><use transform="matrix(0.05555555555555555,0,0,0.05555555555555555,12.166666666666666,0)" xlink:href="#av"/><use transform="matrix(0.05555555555555555,0,0,0.05555555555555555,23.27777777777778,0)" xlink:href="#ay"/><use transform="matrix(0.05555555555555555,0,0,0.05555555555555555,33.27777777777778,0)" xlink:href="#ax"/><use transform="matrix(0.05555555555555555,0,0,0.05555555555555555,38.833333333333336,0)" xlink:href="#az"/></g><path d="M85-194c31 0 48 13 60 33l-1-100h32l1 261h-30c-2-10 0-23-3-31C134-8 116 4 85 4 32 4 16-35 15-94c0-66 23-100 70-100zm9 24c-40 0-46 34-46 75 0 40 6 74 45 74 42 0 51-32 51-76 0-42-9-74-50-73" id="aA"/><path d="M135-143c-3-34-86-38-87 0 15 53 115 12 119 90S17 21 10-45l28-5c4 36 97 45 98 0-10-56-113-15-118-90-4-57 82-63 122-42 12 7 21 19 24 35" id="aB"/><path d="M96-169c-40 0-48 33-48 73s9 75 48 75c24 0 41-14 43-38l32 2c-6 37-31 61-74 61-59 0-76-41-82-99-10-93 101-131 147-64 4 7 5 14 7 22l-32 3c-4-21-16-35-41-35" id="aC"/><path d="M114-163C36-179 61-72 57 0H25l-1-190h30c1 12-1 29 2 39 6-27 23-49 58-41v29" id="aD"/><path d="M24-231v-30h32v30H24zM24 0v-190h32V0H24" id="aE"/><path d="M115-194c55 1 70 41 70 98S169 2 115 4C84 4 66-9 55-30l1 105H24l-1-265h31l2 30c10-21 28-34 59-34zm-8 174c40 0 45-34 45-75s-6-73-45-74c-42 0-51 32-51 76 0 43 10 73 51 73" id="aF"/><path d="M100-194c62-1 85 37 85 99 1 63-27 99-86 99S16-35 15-95c0-66 28-99 85-99zM99-20c44 1 53-31 53-75 0-43-8-75-51-75s-53 32-53 75 10 74 51 75" id="aG"/><g id="f"><use transform="matrix(0.05555555555555555,0,0,0.05555555555555555,0,0)" xlink:href="#aA"/><use transform="matrix(0.05555555555555555,0,0,0.05555555555555555,11.11111111111111,0)" xlink:href="#av"/><use transform="matrix(0.05555555555555555,0,0,0.05555555555555555,22.22222222222222,0)" xlink:href="#aB"/><use transform="matrix(0.05555555555555555,0,0,0.05555555555555555,32.22222222222222,0)" xlink:href="#aC"/><use transform="matrix(0.05555555555555555,0,0,0.05555555555555555,42.22222222222222,0)" xlink:href="#aD"/><use transform="matrix(0.05555555555555555,0,0,0.05555555555555555,48.83333333333333,0)" xlink:href="#aE"/><use transform="matrix(0.05555555555555555,0,0,0.05555555555555555,53.222222222222214,0)" xlink:href="#aF"/><use transform="matrix(0.05555555555555555,0,0,0.05555555555555555,64.33333333333333,0)" xlink:href="#ax"/><use transform="matrix(0.05555555555555555,0,0,0.05555555555555555,69.88888888888889,0)" xlink:href="#aE"/><use transform="matrix(0.05555555555555555,0,0,0.05555555555555555,74.27777777777777,0)" xlink:href="#aG"/><use transform="matrix(0.05555555555555555,0,0,0.05555555555555555,85.38888888888889,0)" xlink:href="#as"/></g><g id="g"><use transform="matrix(0.05555555555555555,0,0,0.05555555555555555,0,0)" xlink:href="#aA"/><use transform="matrix(0.05555555555555555,0,0,0.05555555555555555,11.11111111111111,0)" xlink:href="#at"/><use transform="matrix(0.05555555555555555,0,0,0.05555555555555555,22.22222222222222,0)" xlink:href="#ax"/><use transform="matrix(0.05555555555555555,0,0,0.05555555555555555,27.77777777777778,0)" xlink:href="#at"/></g><path d="M16-82v-28h88v28H16" id="aH"/><use transform="matrix(0.05555555555555555,0,0,0.05555555555555555,0,0)" xlink:href="#aH" id="h"/><path d="M84 4C-5 8 30-112 23-190h32v120c0 31 7 50 39 49 72-2 45-101 50-169h31l1 190h-30c-1-10 1-25-2-33-11 22-28 36-60 37" id="aI"/><g id="i"><use transform="matrix(0.05555555555555555,0,0,0.05555555555555555,0,0)" xlink:href="#aI"/><use transform="matrix(0.05555555555555555,0,0,0.05555555555555555,11.11111111111111,0)" xlink:href="#as"/><use transform="matrix(0.05555555555555555,0,0,0.05555555555555555,22.22222222222222,0)" xlink:href="#aE"/><use transform="matrix(0.05555555555555555,0,0,0.05555555555555555,26.61111111111111,0)" xlink:href="#ax"/></g><g id="j"><use transform="matrix(0.05555555555555555,0,0,0.05555555555555555,0,0)" xlink:href="#aD"/><use transform="matrix(0.05555555555555555,0,0,0.05555555555555555,6.611111111111111,0)" xlink:href="#at"/><use transform="matrix(0.05555555555555555,0,0,0.05555555555555555,17.72222222222222,0)" xlink:href="#ax"/><use transform="matrix(0.05555555555555555,0,0,0.05555555555555555,23.27777777777778,0)" xlink:href="#av"/></g><g id="k"><use transform="matrix(0.05555555555555555,0,0,0.05555555555555555,0,0)" xlink:href="#at"/><use transform="matrix(0.05555555555555555,0,0,0.05555555555555555,11.11111111111111,0)" xlink:href="#as"/><use transform="matrix(0.05555555555555555,0,0,0.05555555555555555,22.22222222222222,0)" xlink:href="#aA"/></g><path d="M177-190C167-65 218 103 67 71c-23-6-38-20-44-43l32-5c15 47 100 32 89-28v-30C133-14 115 1 83 1 29 1 15-40 15-95c0-56 16-97 71-98 29-1 48 16 59 35 1-10 0-23 2-32h30zM94-22c36 0 50-32 50-73 0-42-14-75-50-75-39 0-46 34-46 75s6 73 46 73" id="aJ"/><path d="M-5 72V49h209v23H-5" id="aK"/><g id="l"><use transform="matrix(0.05555555555555555,0,0,0.05555555555555555,0,0)" xlink:href="#aB"/><use transform="matrix(0.05555555555555555,0,0,0.05555555555555555,10,0)" xlink:href="#ax"/><use transform="matrix(0.05555555555555555,0,0,0.05555555555555555,15.555555555555555,0)" xlink:href="#at"/><use transform="matrix(0.05555555555555555,0,0,0.05555555555555555,26.666666666666664,0)" xlink:href="#aD"/><use transform="matrix(0.05555555555555555,0,0,0.05555555555555555,33.27777777777777,0)" xlink:href="#ax"/><use transform="matrix(0.05555555555555555,0,0,0.05555555555555555,38.83333333333333,0)" xlink:href="#aE"/><use transform="matrix(0.05555555555555555,0,0,0.05555555555555555,43.222222222222214,0)" xlink:href="#as"/><use transform="matrix(0.05555555555555555,0,0,0.05555555555555555,54.33333333333333,0)" xlink:href="#aJ"/><use transform="matrix(0.05555555555555555,0,0,0.05555555555555555,65.44444444444444,0)" xlink:href="#aK"/><use transform="matrix(0.05555555555555555,0,0,0.05555555555555555,76.55555555555556,0)" xlink:href="#ax"/><use transform="matrix(0.05555555555555555,0,0,0.05555555555555555,82.11111111111111,0)" xlink:href="#aE"/><use transform="matrix(0.05555555555555555,0,0,0.05555555555555555,86.5,0)" xlink:href="#au"/><use transform="matrix(0.05555555555555555,0,0,0.05555555555555555,103.11111111111111,0)" xlink:href="#av"/></g><path d="M101-234c-31-9-42 10-38 44h38v23H63V0H32v-167H5v-23h27c-7-52 17-82 69-68v24" id="aL"/><path d="M24 0v-261h32V0H24" id="aM"/><g id="m"><use transform="matrix(0.05555555555555555,0,0,0.05555555555555555,0,0)" xlink:href="#aw"/><use transform="matrix(0.05555555555555555,0,0,0.05555555555555555,6.611111111111111,0)" xlink:href="#aL"/><use transform="matrix(0.05555555555555555,0,0,0.05555555555555555,12.166666666666666,0)" xlink:href="#aM"/><use transform="matrix(0.05555555555555555,0,0,0.05555555555555555,16.555555555555554,0)" xlink:href="#aG"/><use transform="matrix(0.05555555555555555,0,0,0.05555555555555555,27.666666666666664,0)" xlink:href="#at"/><use transform="matrix(0.05555555555555555,0,0,0.05555555555555555,38.77777777777777,0)" xlink:href="#ax"/><use transform="matrix(0.05555555555555555,0,0,0.05555555555555555,44.33333333333333,0)" xlink:href="#aB"/><use transform="matrix(0.05555555555555555,0,0,0.05555555555555555,54.33333333333333,0)" xlink:href="#az"/></g><g id="o"><use transform="matrix(0.05555555555555555,0,0,0.05555555555555555,0,0)" xlink:href="#aG"/><use transform="matrix(0.05555555555555555,0,0,0.05555555555555555,11.11111111111111,0)" xlink:href="#aD"/></g><g id="p"><use transform="matrix(0.05555555555555555,0,0,0.05555555555555555,0,0)" xlink:href="#ax"/><use transform="matrix(0.05555555555555555,0,0,0.05555555555555555,5.555555555555555,0)" xlink:href="#aE"/><use transform="matrix(0.05555555555555555,0,0,0.05555555555555555,9.944444444444443,0)" xlink:href="#au"/><use transform="matrix(0.05555555555555555,0,0,0.05555555555555555,26.555555555555554,0)" xlink:href="#av"/><use transform="matrix(0.05555555555555555,0,0,0.05555555555555555,37.666666666666664,0)" xlink:href="#aB"/><use transform="matrix(0.05555555555555555,0,0,0.05555555555555555,47.666666666666664,0)" xlink:href="#ax"/><use transform="matrix(0.05555555555555555,0,0,0.05555555555555555,53.22222222222222,0)" xlink:href="#at"/><use transform="matrix(0.05555555555555555,0,0,0.05555555555555555,64.33333333333333,0)" xlink:href="#au"/><use transform="matrix(0.05555555555555555,0,0,0.05555555555555555,80.94444444444444,0)" xlink:href="#aF"/><use transform="matrix(0.05555555555555555,0,0,0.05555555555555555,92.05555555555556,0)" xlink:href="#aB"/></g><path d="M26 75v-336h71v23H56V52h41v23H26" id="aN"/><path d="M3 75V52h41v-290H3v-23h71V75H3" id="aO"/><g id="q"><use transform="matrix(0.05555555555555555,0,0,0.05555555555555555,0,0)" xlink:href="#aN"/><use transform="matrix(0.05555555555555555,0,0,0.05555555555555555,5.555555555555555,0)" xlink:href="#as"/><use transform="matrix(0.05555555555555555,0,0,0.05555555555555555,16.666666666666664,0)" xlink:href="#ax"/><use transform="matrix(0.05555555555555555,0,0,0.05555555555555555,22.22222222222222,0)" xlink:href="#aE"/><use transform="matrix(0.05555555555555555,0,0,0.05555555555555555,26.61111111111111,0)" xlink:href="#au"/><use transform="matrix(0.05555555555555555,0,0,0.05555555555555555,43.22222222222222,0)" xlink:href="#av"/><use transform="matrix(0.05555555555555555,0,0,0.05555555555555555,54.33333333333333,0)" xlink:href="#aO"/></g><g id="r"><use transform="matrix(0.05555555555555555,0,0,0.05555555555555555,0,0)" xlink:href="#aw"/><use transform="matrix(0.05555555555555555,0,0,0.05555555555555555,6.611111111111111,0)" xlink:href="#aL"/><use transform="matrix(0.05555555555555555,0,0,0.05555555555555555,12.166666666666666,0)" xlink:href="#aM"/><use transform="matrix(0.05555555555555555,0,0,0.05555555555555555,16.555555555555554,0)" xlink:href="#aG"/><use transform="matrix(0.05555555555555555,0,0,0.05555555555555555,27.666666666666664,0)" xlink:href="#at"/><use transform="matrix(0.05555555555555555,0,0,0.05555555555555555,38.77777777777777,0)" xlink:href="#ax"/><use transform="matrix(0.05555555555555555,0,0,0.05555555555555555,44.33333333333333,0)" xlink:href="#az"/></g><filter id="c" filterUnits="objectBoundingBox" x="-.01" y="-.01" width="1.03" height="1.04"><feOffset result="offOut" in="SourceAlpha" dx="2.12" dy="2.12"/><feGaussianBlur result="blurOut" in="offOut" stdDeviation="2.5"/><feColorMatrix result="colorOut" in="blurOut" values="0 0 0 0 0 0 0 0 0 0 0 0 0 0 0 0 0 0 0.5019607843137255 0"/><feBlend in="SourceGraphic" in2="colorOut"/></filter><path fill="#fff" d="M136-208V0H84v-208H4v-40h212v40h-80" id="aP"/><path fill="#fff" d="M25-224v-37h50v37H25zM25 0v-190h50V0H25" id="aQ"/><path fill="#fff" d="M220-157c-53 9-28 100-34 157h-49v-107c1-27-5-49-29-50C55-147 81-57 75 0H25l-1-190h47c2 12-1 28 3 38 10-53 101-56 108 0 13-22 24-43 59-42 82 1 51 116 57 194h-49v-107c-1-25-5-48-29-50" id="aR"/><path fill="#fff" d="M185-48c-13 30-37 53-82 52C43 2 14-33 14-96s30-98 90-98c62 0 83 45 84 108H66c0 31 8 55 39 56 18 0 30-7 34-22zm-45-69c5-46-57-63-70-21-2 6-4 13-4 21h74" id="aS"/><path fill="#fff" d="M169-182c-1-43-94-46-97-3 18 66 151 10 154 114 3 95-165 93-204 36-6-8-10-19-12-30l50-8c3 46 112 56 116 5-17-69-150-10-154-114-4-87 153-88 188-35 5 8 8 18 10 28" id="aT"/><path fill="#fff" d="M135-150c-39-12-60 13-60 57V0H25l-1-190h47c2 13-1 29 3 40 6-28 27-53 61-41v41" id="aU"/><path fill="#fff" d="M137-138c1-29-70-34-71-4 15 46 118 7 119 86 1 83-164 76-172 9l43-7c4 19 20 25 44 25 33 8 57-30 24-41C81-84 22-81 20-136c-2-80 154-74 161-7" id="aV"/><g id="s"><use transform="matrix(0.05555555555555555,0,0,0.05555555555555555,0,0)" xlink:href="#aP"/><use transform="matrix(0.05555555555555555,0,0,0.05555555555555555,11.777777777777777,0)" xlink:href="#aQ"/><use transform="matrix(0.05555555555555555,0,0,0.05555555555555555,17.333333333333332,0)" xlink:href="#aR"/><use transform="matrix(0.05555555555555555,0,0,0.05555555555555555,35.111111111111114,0)" xlink:href="#aS"/><use transform="matrix(0.05555555555555555,0,0,0.05555555555555555,46.22222222222223,0)" xlink:href="#aT"/><use transform="matrix(0.05555555555555555,0,0,0.05555555555555555,59.55555555555555,0)" xlink:href="#aS"/><use transform="matrix(0.05555555555555555,0,0,0.05555555555555555,70.66666666666667,0)" xlink:href="#aU"/><use transform="matrix(0.05555555555555555,0,0,0.05555555555555555,78.44444444444444,0)" xlink:href="#aQ"/><use transform="matrix(0.05555555555555555,0,0,0.05555555555555555,84,0)" xlink:href="#aS"/><use transform="matrix(0.05555555555555555,0,0,0.05555555555555555,95.11111111111111,0)" xlink:href="#aV"/><path fill="#fff" d="M-1 1.07h108.22v2.1H-1z"/></g><g id="u"><use transform="matrix(0.05555555555555555,0,0,0.05555555555555555,0,0)" xlink:href="#au"/><use transform="matrix(0.05555555555555555,0,0,0.05555555555555555,16.61111111111111,0)" xlink:href="#at"/><use transform="matrix(0.05555555555555555,0,0,0.05555555555555555,27.72222222222222,0)" xlink:href="#as"/><use transform="matrix(0.05555555555555555,0,0,0.05555555555555555,38.83333333333333,0)" xlink:href="#aI"/><use transform="matrix(0.05555555555555555,0,0,0.05555555555555555,49.94444444444444,0)" xlink:href="#aL"/><use transform="matrix(0.05555555555555555,0,0,0.05555555555555555,55.5,0)" xlink:href="#at"/><use transform="matrix(0.05555555555555555,0,0,0.05555555555555555,66.61111111111111,0)" xlink:href="#aC"/><use transform="matrix(0.05555555555555555,0,0,0.05555555555555555,76.61111111111111,0)" xlink:href="#ax"/><use transform="matrix(0.05555555555555555,0,0,0.05555555555555555,82.16666666666667,0)" xlink:href="#aI"/><use transform="matrix(0.05555555555555555,0,0,0.05555555555555555,93.27777777777779,0)" xlink:href="#aD"/><use transform="matrix(0.05555555555555555,0,0,0.05555555555555555,99.8888888888889,0)" xlink:href="#av"/><use transform="matrix(0.05555555555555555,0,0,0.05555555555555555,111.00000000000001,0)" xlink:href="#aD"/></g><filter id="t" filterUnits="objectBoundingBox" x="-.01" y="-.02" width="1.05" height="1.07"><feOffset result="offOut" in="SourceAlpha" dx="2.12" dy="2.12"/><feGaussianBlur result="blurOut" in="offOut" stdDeviation="2.5"/><feColorMatrix result="colorOut" in="blurOut" values="0 0 0 0 0 0 0 0 0 0 0 0 0 0 0 0 0 0 0.5019607843137255 0"/><feBlend in="SourceGraphic" in2="colorOut"/></filter><path fill="#fff" d="M24-248c120-7 223 5 221 122C244-46 201 0 124 0H24v-248zM76-40c74 7 117-18 117-86 0-67-45-88-117-82v168" id="aW"/><path fill="#fff" d="M128 0H69L1-190h53L99-40l48-150h52" id="aX"/><path fill="#fff" d="M190-63c-7 42-38 67-86 67-59 0-84-38-90-98-12-110 154-137 174-36l-49 2c-2-19-15-32-35-32-30 0-35 28-38 64-6 74 65 87 74 30" id="aY"/><g id="v"><use transform="matrix(0.05555555555555555,0,0,0.05555555555555555,0,0)" xlink:href="#aW"/><use transform="matrix(0.05555555555555555,0,0,0.05555555555555555,14.388888888888888,0)" xlink:href="#aS"/><use transform="matrix(0.05555555555555555,0,0,0.05555555555555555,25.5,0)" xlink:href="#aX"/><use transform="matrix(0.05555555555555555,0,0,0.05555555555555555,36.611111111111114,0)" xlink:href="#aQ"/><use transform="matrix(0.05555555555555555,0,0,0.05555555555555555,42.16666666666667,0)" xlink:href="#aY"/><use transform="matrix(0.05555555555555555,0,0,0.05555555555555555,53.277777777777786,0)" xlink:href="#aS"/><path fill="#fff" d="M-1 1.07h66.4v2.1H-1z"/></g><path d="M108 0H70L1-190h34L89-25l56-165h34" id="aZ"/><g id="x"><use transform="matrix(0.05555555555555555,0,0,0.05555555555555555,0,0)" xlink:href="#aA"/><use transform="matrix(0.05555555555555555,0,0,0.05555555555555555,11.11111111111111,0)" xlink:href="#av"/><use transform="matrix(0.05555555555555555,0,0,0.05555555555555555,22.22222222222222,0)" xlink:href="#aZ"/><use transform="matrix(0.05555555555555555,0,0,0.05555555555555555,32.22222222222222,0)" xlink:href="#aE"/><use transform="matrix(0.05555555555555555,0,0,0.05555555555555555,36.61111111111111,0)" xlink:href="#aC"/><use transform="matrix(0.05555555555555555,0,0,0.05555555555555555,46.61111111111111,0)" xlink:href="#av"/></g><path d="M30-248c118-7 216 8 213 122C240-48 200 0 122 0H30v-248zM63-27c89 8 146-16 146-99s-60-101-146-95v194" id="ba"/><g id="y"><use transform="matrix(0.05555555555555555,0,0,0.05555555555555555,0,0)" xlink:href="#aw"/><use transform="matrix(0.05555555555555555,0,0,0.05555555555555555,6.611111111111111,0)" xlink:href="#ba"/><use transform="matrix(0.05555555555555555,0,0,0.05555555555555555,21,0)" xlink:href="#av"/><use transform="matrix(0.05555555555555555,0,0,0.05555555555555555,32.111111111111114,0)" xlink:href="#aZ"/><use transform="matrix(0.05555555555555555,0,0,0.05555555555555555,42.111111111111114,0)" xlink:href="#aE"/><use transform="matrix(0.05555555555555555,0,0,0.05555555555555555,46.5,0)" xlink:href="#aC"/><use transform="matrix(0.05555555555555555,0,0,0.05555555555555555,56.5,0)" xlink:href="#av"/><use transform="matrix(0.05555555555555555,0,0,0.05555555555555555,67.61111111111111,0)" xlink:href="#az"/></g><g id="z"><use transform="matrix(0.05555555555555555,0,0,0.05555555555555555,0,0)" xlink:href="#aL"/><use transform="matrix(0.05555555555555555,0,0,0.05555555555555555,5.555555555555555,0)" xlink:href="#aE"/><use transform="matrix(0.05555555555555555,0,0,0.05555555555555555,9.944444444444443,0)" xlink:href="#aM"/><use transform="matrix(0.05555555555555555,0,0,0.05555555555555555,14.333333333333332,0)" xlink:href="#ax"/><use transform="matrix(0.05555555555555555,0,0,0.05555555555555555,19.888888888888886,0)" xlink:href="#av"/><use transform="matrix(0.05555555555555555,0,0,0.05555555555555555,31,0)" xlink:href="#aD"/><use transform="matrix(0.05555555555555555,0,0,0.05555555555555555,37.61111111111111,0)" xlink:href="#aE"/><use transform="matrix(0.05555555555555555,0,0,0.05555555555555555,41.99999999999999,0)" xlink:href="#as"/><use transform="matrix(0.05555555555555555,0,0,0.05555555555555555,53.1111111111111,0)" xlink:href="#aJ"/></g><g id="A"><use transform="matrix(0.05555555555555555,0,0,0.05555555555555555,0,0)" xlink:href="#aE"/><use transform="matrix(0.05555555555555555,0,0,0.05555555555555555,4.388888888888888,0)" xlink:href="#as"/><use transform="matrix(0.05555555555555555,0,0,0.05555555555555555,15.5,0)" xlink:href="#aE"/><use transform="matrix(0.05555555555555555,0,0,0.05555555555555555,19.88888888888889,0)" xlink:href="#ax"/><use transform="matrix(0.05555555555555555,0,0,0.05555555555555555,25.444444444444443,0)" xlink:href="#aE"/><use transform="matrix(0.05555555555555555,0,0,0.05555555555555555,29.833333333333332,0)" xlink:href="#at"/><use transform="matrix(0.05555555555555555,0,0,0.05555555555555555,40.94444444444444,0)" xlink:href="#aM"/><use transform="matrix(0.05555555555555555,0,0,0.05555555555555555,45.33333333333333,0)" xlink:href="#aK"/><use transform="matrix(0.05555555555555555,0,0,0.05555555555555555,56.44444444444444,0)" xlink:href="#at"/><use transform="matrix(0.05555555555555555,0,0,0.05555555555555555,67.55555555555556,0)" xlink:href="#aC"/><use transform="matrix(0.05555555555555555,0,0,0.05555555555555555,77.55555555555556,0)" xlink:href="#aC"/><use transform="matrix(0.05555555555555555,0,0,0.05555555555555555,87.55555555555556,0)" xlink:href="#av"/><use transform="matrix(0.05555555555555555,0,0,0.05555555555555555,98.66666666666667,0)" xlink:href="#aB"/><use transform="matrix(0.05555555555555555,0,0,0.05555555555555555,108.66666666666667,0)" xlink:href="#aB"/><use transform="matrix(0.05555555555555555,0,0,0.05555555555555555,118.66666666666666,0)" xlink:href="#aK"/><use transform="matrix(0.05555555555555555,0,0,0.05555555555555555,129.77777777777777,0)" xlink:href="#aD"/><use transform="matrix(0.05555555555555555,0,0,0.05555555555555555,136.38888888888889,0)" xlink:href="#av"/><use transform="matrix(0.05555555555555555,0,0,0.05555555555555555,147.5,0)" xlink:href="#aB"/><use transform="matrix(0.05555555555555555,0,0,0.05555555555555555,157.5,0)" xlink:href="#aE"/><use transform="matrix(0.05555555555555555,0,0,0.05555555555555555,161.88888888888889,0)" xlink:href="#aB"/><use transform="matrix(0.05555555555555555,0,0,0.05555555555555555,171.88888888888889,0)" xlink:href="#ax"/><use transform="matrix(0.05555555555555555,0,0,0.05555555555555555,177.44444444444443,0)" xlink:href="#at"/><use transform="matrix(0.05555555555555555,0,0,0.05555555555555555,188.55555555555554,0)" xlink:href="#as"/><use transform="matrix(0.05555555555555555,0,0,0.05555555555555555,199.66666666666666,0)" xlink:href="#aC"/><use transform="matrix(0.05555555555555555,0,0,0.05555555555555555,209.66666666666666,0)" xlink:href="#av"/></g><g id="B"><use transform="matrix(0.05555555555555555,0,0,0.05555555555555555,0,0)" xlink:href="#aM"/><use transform="matrix(0.05555555555555555,0,0,0.05555555555555555,4.388888888888888,0)" xlink:href="#aG"/><use transform="matrix(0.05555555555555555,0,0,0.05555555555555555,15.5,0)" xlink:href="#aC"/><use transform="matrix(0.05555555555555555,0,0,0.05555555555555555,25.5,0)" xlink:href="#at"/><use transform="matrix(0.05555555555555555,0,0,0.05555555555555555,36.611111111111114,0)" xlink:href="#ax"/><use transform="matrix(0.05555555555555555,0,0,0.05555555555555555,42.16666666666667,0)" xlink:href="#aE"/><use transform="matrix(0.05555555555555555,0,0,0.05555555555555555,46.55555555555556,0)" xlink:href="#aG"/><use transform="matrix(0.05555555555555555,0,0,0.05555555555555555,57.66666666666668,0)" xlink:href="#as"/></g><g id="C"><use transform="matrix(0.05555555555555555,0,0,0.05555555555555555,0,0)" xlink:href="#aD"/><use transform="matrix(0.05555555555555555,0,0,0.05555555555555555,6.611111111111111,0)" xlink:href="#av"/><use transform="matrix(0.05555555555555555,0,0,0.05555555555555555,17.72222222222222,0)" xlink:href="#aB"/><use transform="matrix(0.05555555555555555,0,0,0.05555555555555555,27.72222222222222,0)" xlink:href="#aE"/><use transform="matrix(0.05555555555555555,0,0,0.05555555555555555,32.11111111111111,0)" xlink:href="#aB"/><use transform="matrix(0.05555555555555555,0,0,0.05555555555555555,42.11111111111111,0)" xlink:href="#ax"/><use transform="matrix(0.05555555555555555,0,0,0.05555555555555555,47.666666666666664,0)" xlink:href="#at"/><use transform="matrix(0.05555555555555555,0,0,0.05555555555555555,58.77777777777777,0)" xlink:href="#as"/><use transform="matrix(0.05555555555555555,0,0,0.05555555555555555,69.88888888888889,0)" xlink:href="#aC"/><use transform="matrix(0.05555555555555555,0,0,0.05555555555555555,79.88888888888889,0)" xlink:href="#av"/></g><g id="D"><use transform="matrix(0.05555555555555555,0,0,0.05555555555555555,0,0)" xlink:href="#aB"/><use transform="matrix(0.05555555555555555,0,0,0.05555555555555555,10,0)" xlink:href="#av"/><use transform="matrix(0.05555555555555555,0,0,0.05555555555555555,21.11111111111111,0)" xlink:href="#at"/><use transform="matrix(0.05555555555555555,0,0,0.05555555555555555,32.22222222222222,0)" xlink:href="#aM"/></g><g id="E"><use transform="matrix(0.05555555555555555,0,0,0.05555555555555555,0,0)" xlink:href="#aB"/><use transform="matrix(0.05555555555555555,0,0,0.05555555555555555,10,0)" xlink:href="#aM"/><use transform="matrix(0.05555555555555555,0,0,0.05555555555555555,14.388888888888888,0)" xlink:href="#aE"/><use transform="matrix(0.05555555555555555,0,0,0.05555555555555555,18.77777777777778,0)" xlink:href="#aC"/><use transform="matrix(0.05555555555555555,0,0,0.05555555555555555,28.777777777777775,0)" xlink:href="#av"/></g><filter id="w" filterUnits="objectBoundingBox" x="-.01" y="-.01" width="1.03" height="1.03"><feOffset result="offOut" in="SourceAlpha" dx="2.12" dy="2.12"/><feGaussianBlur result="blurOut" in="offOut" stdDeviation="2.5"/><feColorMatrix result="colorOut" in="blurOut" values="0 0 0 0 0 0 0 0 0 0 0 0 0 0 0 0 0 0 0.5019607843137255 0"/><feBlend in="SourceGraphic" in2="colorOut"/></filter><path fill="#fff" d="M24 0v-248h52V0H24" id="bb"/><path fill="#fff" d="M135-194c87-1 58 113 63 194h-50c-7-57 23-157-34-157-59 0-34 97-39 157H25l-1-190h47c2 12-1 28 3 38 12-26 28-41 61-42" id="bc"/><path fill="#fff" d="M115-3C79 11 28 4 28-45v-112H4v-33h27l15-45h31v45h36v33H77v99c-1 23 16 31 38 25v30" id="bd"/><path fill="#fff" d="M133-34C117-15 103 5 69 4 32 3 11-16 11-54c-1-60 55-63 116-61 1-26-3-47-28-47-18 1-26 9-28 27l-52-2c7-38 36-58 82-57s74 22 75 68l1 82c-1 14 12 18 25 15v27c-30 8-71 5-69-32zm-48 3c29 0 43-24 42-57-32 0-66-3-65 30 0 17 8 27 23 27" id="be"/><path fill="#fff" d="M25 0v-261h50V0H25" id="bf"/><path fill="#fff" d="M85 4C-2 5 27-109 22-190h50c7 57-23 150 33 157 60-5 35-97 40-157h50l1 190h-47c-2-12 1-28-3-38-12 25-28 42-61 42" id="bg"/><g id="F"><use transform="matrix(0.05555555555555555,0,0,0.05555555555555555,0,0)" xlink:href="#bb"/><use transform="matrix(0.05555555555555555,0,0,0.05555555555555555,5.555555555555555,0)" xlink:href="#bc"/><use transform="matrix(0.05555555555555555,0,0,0.05555555555555555,17.72222222222222,0)" xlink:href="#bd"/><use transform="matrix(0.05555555555555555,0,0,0.05555555555555555,24.333333333333332,0)" xlink:href="#aU"/><use transform="matrix(0.05555555555555555,0,0,0.05555555555555555,32.11111111111111,0)" xlink:href="#be"/><use transform="matrix(0.05555555555555555,0,0,0.05555555555555555,43.222222222222214,0)" xlink:href="#aY"/><use transform="matrix(0.05555555555555555,0,0,0.05555555555555555,54.33333333333333,0)" xlink:href="#aS"/><use transform="matrix(0.05555555555555555,0,0,0.05555555555555555,65.44444444444444,0)" xlink:href="#bf"/><use transform="matrix(0.05555555555555555,0,0,0.05555555555555555,71,0)" xlink:href="#bf"/><use transform="matrix(0.05555555555555555,0,0,0.05555555555555555,76.55555555555556,0)" xlink:href="#bg"/><use transform="matrix(0.05555555555555555,0,0,0.05555555555555555,88.72222222222223,0)" xlink:href="#bf"/><use transform="matrix(0.05555555555555555,0,0,0.05555555555555555,94.27777777777779,0)" xlink:href="#be"/><use transform="matrix(0.05555555555555555,0,0,0.05555555555555555,105.3888888888889,0)" xlink:href="#aU"/><path fill="#fff" d="M-1 1.07h120.72v2.1H-1z"/></g><path fill="#fff" d="M24 0v-248h195v40H76v63h132v40H76v65h150V0H24" id="bh"/><path fill="#fff" d="M110-194c64 0 96 36 96 99 0 64-35 99-97 99-61 0-95-36-95-99 0-62 34-99 96-99zm-1 164c35 0 45-28 45-65 0-40-10-65-43-65-34 0-45 26-45 65 0 36 10 65 43 65" id="bi"/><path fill="#fff" d="M88-194c31-1 46 15 58 34l-1-101h50l1 261h-48c-2-10 0-23-3-31C134-8 116 4 84 4 32 4 16-41 15-95c0-56 19-97 73-99zm17 164c33 0 40-30 41-66 1-37-9-64-41-64s-38 30-39 65c0 43 13 65 39 65" id="bj"/><g id="G"><use transform="matrix(0.05555555555555555,0,0,0.05555555555555555,0,0)" xlink:href="#bh"/><use transform="matrix(0.05555555555555555,0,0,0.05555555555555555,13.333333333333332,0)" xlink:href="#bf"/><use transform="matrix(0.05555555555555555,0,0,0.05555555555555555,18.888888888888886,0)" xlink:href="#aS"/><use transform="matrix(0.05555555555555555,0,0,0.05555555555555555,30,0)" xlink:href="#aY"/><use transform="matrix(0.05555555555555555,0,0,0.05555555555555555,41.11111111111111,0)" xlink:href="#bd"/><use transform="matrix(0.05555555555555555,0,0,0.05555555555555555,47.722222222222214,0)" xlink:href="#aU"/><use transform="matrix(0.05555555555555555,0,0,0.05555555555555555,55.49999999999999,0)" xlink:href="#bi"/><use transform="matrix(0.05555555555555555,0,0,0.05555555555555555,67.66666666666666,0)" xlink:href="#bj"/><use transform="matrix(0.05555555555555555,0,0,0.05555555555555555,79.83333333333333,0)" xlink:href="#aS"/><path fill="#fff" d="M-1 1.07h92.94v2.1H-1z"/></g><g id="I"><use transform="matrix(0.05555555555555555,0,0,0.05555555555555555,0,0)" xlink:href="#aJ"/><use transform="matrix(0.05555555555555555,0,0,0.05555555555555555,11.11111111111111,0)" xlink:href="#at"/><use transform="matrix(0.05555555555555555,0,0,0.05555555555555555,22.22222222222222,0)" xlink:href="#aE"/><use transform="matrix(0.05555555555555555,0,0,0.05555555555555555,26.61111111111111,0)" xlink:href="#as"/></g><g id="J"><use transform="matrix(0.05555555555555555,0,0,0.05555555555555555,0,0)" xlink:href="#av"/><use transform="matrix(0.05555555555555555,0,0,0.05555555555555555,11.11111111111111,0)" xlink:href="#aM"/><use transform="matrix(0.05555555555555555,0,0,0.05555555555555555,15.5,0)" xlink:href="#av"/><use transform="matrix(0.05555555555555555,0,0,0.05555555555555555,26.61111111111111,0)" xlink:href="#aC"/><use transform="matrix(0.05555555555555555,0,0,0.05555555555555555,36.611111111111114,0)" xlink:href="#ax"/><use transform="matrix(0.05555555555555555,0,0,0.05555555555555555,42.16666666666667,0)" xlink:href="#aD"/><use transform="matrix(0.05555555555555555,0,0,0.05555555555555555,48.777777777777786,0)" xlink:href="#aG"/><use transform="matrix(0.05555555555555555,0,0,0.05555555555555555,59.8888888888889,0)" xlink:href="#aA"/><use transform="matrix(0.05555555555555555,0,0,0.05555555555555555,71.00000000000001,0)" xlink:href="#av"/></g><path d="M33 0v-248h34V0H33" id="bk"/><path d="M30 0v-248h187v28H63v79h144v27H63v87h162V0H30" id="bl"/><g id="K"><use transform="matrix(0.05555555555555555,0,0,0.05555555555555555,0,0)" xlink:href="#aw"/><use transform="matrix(0.05555555555555555,0,0,0.05555555555555555,6.611111111111111,0)" xlink:href="#bk"/><use transform="matrix(0.05555555555555555,0,0,0.05555555555555555,12.166666666666666,0)" xlink:href="#as"/><use transform="matrix(0.05555555555555555,0,0,0.05555555555555555,23.27777777777778,0)" xlink:href="#ax"/><use transform="matrix(0.05555555555555555,0,0,0.05555555555555555,28.83333333333334,0)" xlink:href="#aD"/><use transform="matrix(0.05555555555555555,0,0,0.05555555555555555,35.44444444444444,0)" xlink:href="#at"/><use transform="matrix(0.05555555555555555,0,0,0.05555555555555555,46.55555555555556,0)" xlink:href="#aC"/><use transform="matrix(0.05555555555555555,0,0,0.05555555555555555,56.55555555555556,0)" xlink:href="#av"/><use transform="matrix(0.05555555555555555,0,0,0.05555555555555555,67.66666666666667,0)" xlink:href="#aM"/><use transform="matrix(0.05555555555555555,0,0,0.05555555555555555,72.05555555555556,0)" xlink:href="#aM"/><use transform="matrix(0.05555555555555555,0,0,0.05555555555555555,76.44444444444444,0)" xlink:href="#aI"/><use transform="matrix(0.05555555555555555,0,0,0.05555555555555555,87.55555555555556,0)" xlink:href="#aM"/><use transform="matrix(0.05555555555555555,0,0,0.05555555555555555,91.94444444444444,0)" xlink:href="#at"/><use transform="matrix(0.05555555555555555,0,0,0.05555555555555555,103.05555555555556,0)" xlink:href="#aD"/><use transform="matrix(0.05555555555555555,0,0,0.05555555555555555,109.66666666666667,0)" xlink:href="#bl"/><use transform="matrix(0.05555555555555555,0,0,0.05555555555555555,123,0)" xlink:href="#aM"/><use transform="matrix(0.05555555555555555,0,0,0.05555555555555555,127.38888888888889,0)" xlink:href="#av"/><use transform="matrix(0.05555555555555555,0,0,0.05555555555555555,138.5,0)" xlink:href="#aC"/><use transform="matrix(0.05555555555555555,0,0,0.05555555555555555,148.5,0)" xlink:href="#ax"/><use transform="matrix(0.05555555555555555,0,0,0.05555555555555555,154.05555555555554,0)" xlink:href="#aD"/><use transform="matrix(0.05555555555555555,0,0,0.05555555555555555,160.66666666666666,0)" xlink:href="#aG"/><use transform="matrix(0.05555555555555555,0,0,0.05555555555555555,171.77777777777777,0)" xlink:href="#aA"/><use transform="matrix(0.05555555555555555,0,0,0.05555555555555555,182.88888888888889,0)" xlink:href="#av"/><use transform="matrix(0.05555555555555555,0,0,0.05555555555555555,194,0)" xlink:href="#az"/></g><g id="L"><use transform="matrix(0.05555555555555555,0,0,0.05555555555555555,0,0)" xlink:href="#aB"/><use transform="matrix(0.05555555555555555,0,0,0.05555555555555555,10,0)" xlink:href="#ax"/><use transform="matrix(0.05555555555555555,0,0,0.05555555555555555,15.555555555555555,0)" xlink:href="#aE"/><use transform="matrix(0.05555555555555555,0,0,0.05555555555555555,19.944444444444443,0)" xlink:href="#au"/><use transform="matrix(0.05555555555555555,0,0,0.05555555555555555,36.55555555555556,0)" xlink:href="#aI"/><use transform="matrix(0.05555555555555555,0,0,0.05555555555555555,47.66666666666667,0)" xlink:href="#aM"/><use transform="matrix(0.05555555555555555,0,0,0.05555555555555555,52.05555555555556,0)" xlink:href="#aI"/><use transform="matrix(0.05555555555555555,0,0,0.05555555555555555,63.16666666666668,0)" xlink:href="#aB"/><use transform="matrix(0.05555555555555555,0,0,0.05555555555555555,73.16666666666667,0)" xlink:href="#aK"/><use transform="matrix(0.05555555555555555,0,0,0.05555555555555555,84.27777777777779,0)" xlink:href="#aA"/><use transform="matrix(0.05555555555555555,0,0,0.05555555555555555,95.3888888888889,0)" xlink:href="#av"/><use transform="matrix(0.05555555555555555,0,0,0.05555555555555555,106.50000000000001,0)" xlink:href="#aB"/><use transform="matrix(0.05555555555555555,0,0,0.05555555555555555,116.50000000000001,0)" xlink:href="#aC"/><use transform="matrix(0.05555555555555555,0,0,0.05555555555555555,126.50000000000001,0)" xlink:href="#aD"/><use transform="matrix(0.05555555555555555,0,0,0.05555555555555555,133.11111111111111,0)" xlink:href="#aE"/><use transform="matrix(0.05555555555555555,0,0,0.05555555555555555,137.5,0)" xlink:href="#aF"/><use transform="matrix(0.05555555555555555,0,0,0.05555555555555555,148.61111111111111,0)" xlink:href="#ax"/><use transform="matrix(0.05555555555555555,0,0,0.05555555555555555,154.16666666666666,0)" xlink:href="#aE"/><use transform="matrix(0.05555555555555555,0,0,0.05555555555555555,158.55555555555554,0)" xlink:href="#aG"/><use transform="matrix(0.05555555555555555,0,0,0.05555555555555555,169.66666666666666,0)" xlink:href="#as"/></g><path d="M206 0h-36l-40-164L89 0H53L-1-190h32L70-26l43-164h34l41 164 42-164h31" id="bm"/><path d="M115-194c53 0 69 39 70 98 0 66-23 100-70 100C84 3 66-7 56-30L54 0H23l1-261h32v101c10-23 28-34 59-34zm-8 174c40 0 45-34 45-75 0-40-5-75-45-74-42 0-51 32-51 76 0 43 10 73 51 73" id="bn"/><g id="M"><use transform="matrix(0.05555555555555555,0,0,0.05555555555555555,0,0)" xlink:href="#aB"/><use transform="matrix(0.05555555555555555,0,0,0.05555555555555555,10,0)" xlink:href="#bm"/><use transform="matrix(0.05555555555555555,0,0,0.05555555555555555,24.388888888888886,0)" xlink:href="#av"/><use transform="matrix(0.05555555555555555,0,0,0.05555555555555555,35.5,0)" xlink:href="#av"/><use transform="matrix(0.05555555555555555,0,0,0.05555555555555555,46.611111111111114,0)" xlink:href="#aF"/><use transform="matrix(0.05555555555555555,0,0,0.05555555555555555,57.72222222222223,0)" xlink:href="#aK"/><use transform="matrix(0.05555555555555555,0,0,0.05555555555555555,68.83333333333334,0)" xlink:href="#as"/><use transform="matrix(0.05555555555555555,0,0,0.05555555555555555,79.94444444444446,0)" xlink:href="#aI"/><use transform="matrix(0.05555555555555555,0,0,0.05555555555555555,91.05555555555557,0)" xlink:href="#au"/><use transform="matrix(0.05555555555555555,0,0,0.05555555555555555,107.66666666666669,0)" xlink:href="#bn"/><use transform="matrix(0.05555555555555555,0,0,0.05555555555555555,118.7777777777778,0)" xlink:href="#av"/><use transform="matrix(0.05555555555555555,0,0,0.05555555555555555,129.8888888888889,0)" xlink:href="#aD"/></g><g id="N"><use transform="matrix(0.05555555555555555,0,0,0.05555555555555555,0,0)" xlink:href="#aw"/><use transform="matrix(0.05555555555555555,0,0,0.05555555555555555,6.611111111111111,0)" xlink:href="#aE"/><use transform="matrix(0.05555555555555555,0,0,0.05555555555555555,11,0)" xlink:href="#as"/><use transform="matrix(0.05555555555555555,0,0,0.05555555555555555,22.11111111111111,0)" xlink:href="#ax"/><use transform="matrix(0.05555555555555555,0,0,0.05555555555555555,27.666666666666664,0)" xlink:href="#az"/></g><filter id="H" filterUnits="objectBoundingBox" x="-.01" y="-.02" width="1.03" height="1.06"><feOffset result="offOut" in="SourceAlpha" dx="2.12" dy="2.12"/><feGaussianBlur result="blurOut" in="offOut" stdDeviation="2.5"/><feColorMatrix result="colorOut" in="blurOut" values="0 0 0 0 0 0 0 0 0 0 0 0 0 0 0 0 0 0 0.5019607843137255 0"/><feBlend in="SourceGraphic" in2="colorOut"/></filter><path fill="#fff" d="M24-248c93 1 206-16 204 79-1 75-69 88-152 82V0H24v-248zm52 121c47 0 100 7 100-41 0-47-54-39-100-39v80" id="bo"/><path fill="#fff" d="M114-157C55-157 80-60 75 0H25v-261h50l-1 109c12-26 28-41 61-42 86-1 58 113 63 194h-50c-7-57 23-157-34-157" id="bp"/><path fill="#fff" d="M67-125c0 53 21 87 73 88 37 1 54-22 65-47l45 17C233-25 199 4 140 4 58 4 20-42 15-125 8-235 124-281 211-232c18 10 29 29 36 50l-46 12c-8-25-30-41-62-41-52 0-71 34-72 86" id="bq"/><path fill="#fff" d="M135-194c53 0 70 44 70 98 0 56-19 98-73 100-31 1-45-17-59-34 3 33 2 69 2 105H25l-1-265h48c2 10 0 23 3 31 11-24 29-35 60-35zM114-30c33 0 39-31 40-66 0-38-9-64-40-64-56 0-55 130 0 130" id="br"/><g id="O"><use transform="matrix(0.05555555555555555,0,0,0.05555555555555555,0,0)" xlink:href="#bo"/><use transform="matrix(0.05555555555555555,0,0,0.05555555555555555,13.333333333333332,0)" xlink:href="#be"/><use transform="matrix(0.05555555555555555,0,0,0.05555555555555555,24.444444444444443,0)" xlink:href="#bd"/><use transform="matrix(0.05555555555555555,0,0,0.05555555555555555,31.055555555555554,0)" xlink:href="#aY"/><use transform="matrix(0.05555555555555555,0,0,0.05555555555555555,42.166666666666664,0)" xlink:href="#bp"/><use transform="matrix(0.05555555555555555,0,0,0.05555555555555555,54.33333333333333,0)" xlink:href="#bq"/><use transform="matrix(0.05555555555555555,0,0,0.05555555555555555,68.72222222222221,0)" xlink:href="#bf"/><use transform="matrix(0.05555555555555555,0,0,0.05555555555555555,74.27777777777777,0)" xlink:href="#be"/><use transform="matrix(0.05555555555555555,0,0,0.05555555555555555,85.38888888888889,0)" xlink:href="#aR"/><use transform="matrix(0.05555555555555555,0,0,0.05555555555555555,103.16666666666666,0)" xlink:href="#br"/><use transform="matrix(0.05555555555555555,0,0,0.05555555555555555,115.33333333333333,0)" xlink:href="#aT"/><use transform="matrix(0.05555555555555555,0,0,0.05555555555555555,128.66666666666666,0)" xlink:href="#aS"/><use transform="matrix(0.05555555555555555,0,0,0.05555555555555555,139.77777777777777,0)" xlink:href="#aU"/><use transform="matrix(0.05555555555555555,0,0,0.05555555555555555,147.55555555555554,0)" xlink:href="#aQ"/><use transform="matrix(0.05555555555555555,0,0,0.05555555555555555,153.1111111111111,0)" xlink:href="#aS"/><use transform="matrix(0.05555555555555555,0,0,0.05555555555555555,164.2222222222222,0)" xlink:href="#aV"/><path fill="#fff" d="M-1 1.07h177.33v2.1H-1z"/></g><g id="Q"><use transform="matrix(0.05555555555555555,0,0,0.05555555555555555,0,0)" xlink:href="#aC"/><use transform="matrix(0.05555555555555555,0,0,0.05555555555555555,10,0)" xlink:href="#at"/><use transform="matrix(0.05555555555555555,0,0,0.05555555555555555,21.11111111111111,0)" xlink:href="#aF"/><use transform="matrix(0.05555555555555555,0,0,0.05555555555555555,32.22222222222222,0)" xlink:href="#at"/><use transform="matrix(0.05555555555555555,0,0,0.05555555555555555,43.33333333333333,0)" xlink:href="#aC"/><use transform="matrix(0.05555555555555555,0,0,0.05555555555555555,53.33333333333333,0)" xlink:href="#aE"/><use transform="matrix(0.05555555555555555,0,0,0.05555555555555555,57.72222222222222,0)" xlink:href="#ax"/><use transform="matrix(0.05555555555555555,0,0,0.05555555555555555,63.27777777777777,0)" xlink:href="#at"/><use transform="matrix(0.05555555555555555,0,0,0.05555555555555555,74.38888888888889,0)" xlink:href="#as"/><use transform="matrix(0.05555555555555555,0,0,0.05555555555555555,85.5,0)" xlink:href="#aC"/><use transform="matrix(0.05555555555555555,0,0,0.05555555555555555,95.5,0)" xlink:href="#av"/><use transform="matrix(0.05555555555555555,0,0,0.05555555555555555,106.61111111111111,0)" xlink:href="#aK"/><use transform="matrix(0.05555555555555555,0,0,0.05555555555555555,117.72222222222224,0)" xlink:href="#aL"/><use transform="matrix(0.05555555555555555,0,0,0.05555555555555555,123.2777777777778,0)" xlink:href="#at"/><use transform="matrix(0.05555555555555555,0,0,0.05555555555555555,134.38888888888889,0)" xlink:href="#aB"/><use transform="matrix(0.05555555555555555,0,0,0.05555555555555555,144.38888888888889,0)" xlink:href="#ax"/></g><g id="R"><use transform="matrix(0.05555555555555555,0,0,0.05555555555555555,0,0)" xlink:href="#aC"/><use transform="matrix(0.05555555555555555,0,0,0.05555555555555555,10,0)" xlink:href="#at"/><use transform="matrix(0.05555555555555555,0,0,0.05555555555555555,21.11111111111111,0)" xlink:href="#aF"/><use transform="matrix(0.05555555555555555,0,0,0.05555555555555555,32.22222222222222,0)" xlink:href="#at"/><use transform="matrix(0.05555555555555555,0,0,0.05555555555555555,43.33333333333333,0)" xlink:href="#aC"/><use transform="matrix(0.05555555555555555,0,0,0.05555555555555555,53.33333333333333,0)" xlink:href="#aE"/><use transform="matrix(0.05555555555555555,0,0,0.05555555555555555,57.72222222222222,0)" xlink:href="#ax"/><use transform="matrix(0.05555555555555555,0,0,0.05555555555555555,63.27777777777777,0)" xlink:href="#at"/><use transform="matrix(0.05555555555555555,0,0,0.05555555555555555,74.38888888888889,0)" xlink:href="#as"/><use transform="matrix(0.05555555555555555,0,0,0.05555555555555555,85.5,0)" xlink:href="#aC"/><use transform="matrix(0.05555555555555555,0,0,0.05555555555555555,95.5,0)" xlink:href="#av"/><use transform="matrix(0.05555555555555555,0,0,0.05555555555555555,106.61111111111111,0)" xlink:href="#aK"/><use transform="matrix(0.05555555555555555,0,0,0.05555555555555555,117.72222222222224,0)" xlink:href="#aB"/><use transform="matrix(0.05555555555555555,0,0,0.05555555555555555,127.72222222222224,0)" xlink:href="#aM"/><use transform="matrix(0.05555555555555555,0,0,0.05555555555555555,132.11111111111111,0)" xlink:href="#aG"/><use transform="matrix(0.05555555555555555,0,0,0.05555555555555555,143.22222222222223,0)" xlink:href="#bm"/></g><path d="M106-169C34-169 62-67 57 0H25v-261h32l-1 103c12-21 28-36 61-36 89 0 53 116 60 194h-32v-121c2-32-8-49-39-48" id="bs"/><g id="S"><use transform="matrix(0.05555555555555555,0,0,0.05555555555555555,0,0)" xlink:href="#aD"/><use transform="matrix(0.05555555555555555,0,0,0.05555555555555555,6.611111111111111,0)" xlink:href="#av"/><use transform="matrix(0.05555555555555555,0,0,0.05555555555555555,17.72222222222222,0)" xlink:href="#aB"/><use transform="matrix(0.05555555555555555,0,0,0.05555555555555555,27.72222222222222,0)" xlink:href="#aE"/><use transform="matrix(0.05555555555555555,0,0,0.05555555555555555,32.11111111111111,0)" xlink:href="#aB"/><use transform="matrix(0.05555555555555555,0,0,0.05555555555555555,42.11111111111111,0)" xlink:href="#ax"/><use transform="matrix(0.05555555555555555,0,0,0.05555555555555555,47.666666666666664,0)" xlink:href="#at"/><use transform="matrix(0.05555555555555555,0,0,0.05555555555555555,58.77777777777777,0)" xlink:href="#as"/><use transform="matrix(0.05555555555555555,0,0,0.05555555555555555,69.88888888888889,0)" xlink:href="#aC"/><use transform="matrix(0.05555555555555555,0,0,0.05555555555555555,79.88888888888889,0)" xlink:href="#av"/><use transform="matrix(0.05555555555555555,0,0,0.05555555555555555,91,0)" xlink:href="#aK"/><use transform="matrix(0.05555555555555555,0,0,0.05555555555555555,102.11111111111111,0)" xlink:href="#aC"/><use transform="matrix(0.05555555555555555,0,0,0.05555555555555555,112.11111111111111,0)" xlink:href="#aG"/><use transform="matrix(0.05555555555555555,0,0,0.05555555555555555,123.22222222222224,0)" xlink:href="#au"/><use transform="matrix(0.05555555555555555,0,0,0.05555555555555555,139.83333333333334,0)" xlink:href="#aF"/><use transform="matrix(0.05555555555555555,0,0,0.05555555555555555,150.94444444444446,0)" xlink:href="#aK"/><use transform="matrix(0.05555555555555555,0,0,0.05555555555555555,162.05555555555557,0)" xlink:href="#bn"/><use transform="matrix(0.05555555555555555,0,0,0.05555555555555555,173.16666666666669,0)" xlink:href="#at"/><use transform="matrix(0.05555555555555555,0,0,0.05555555555555555,184.2777777777778,0)" xlink:href="#as"/><use transform="matrix(0.05555555555555555,0,0,0.05555555555555555,195.3888888888889,0)" xlink:href="#aA"/><use transform="matrix(0.05555555555555555,0,0,0.05555555555555555,206.50000000000003,0)" xlink:href="#bm"/><use transform="matrix(0.05555555555555555,0,0,0.05555555555555555,220.8888888888889,0)" xlink:href="#aE"/><use transform="matrix(0.05555555555555555,0,0,0.05555555555555555,225.2777777777778,0)" xlink:href="#aA"/><use transform="matrix(0.05555555555555555,0,0,0.05555555555555555,236.3888888888889,0)" xlink:href="#ax"/><use transform="matrix(0.05555555555555555,0,0,0.05555555555555555,241.94444444444449,0)" xlink:href="#bs"/></g><g id="T"><use transform="matrix(0.05555555555555555,0,0,0.05555555555555555,0,0)" xlink:href="#aD"/><use transform="matrix(0.05555555555555555,0,0,0.05555555555555555,6.611111111111111,0)" xlink:href="#av"/><use transform="matrix(0.05555555555555555,0,0,0.05555555555555555,17.72222222222222,0)" xlink:href="#aB"/><use transform="matrix(0.05555555555555555,0,0,0.05555555555555555,27.72222222222222,0)" xlink:href="#aE"/><use transform="matrix(0.05555555555555555,0,0,0.05555555555555555,32.11111111111111,0)" xlink:href="#aB"/><use transform="matrix(0.05555555555555555,0,0,0.05555555555555555,42.11111111111111,0)" xlink:href="#ax"/><use transform="matrix(0.05555555555555555,0,0,0.05555555555555555,47.666666666666664,0)" xlink:href="#at"/><use transform="matrix(0.05555555555555555,0,0,0.05555555555555555,58.77777777777777,0)" xlink:href="#as"/><use transform="matrix(0.05555555555555555,0,0,0.05555555555555555,69.88888888888889,0)" xlink:href="#aC"/><use transform="matrix(0.05555555555555555,0,0,0.05555555555555555,79.88888888888889,0)" xlink:href="#av"/><use transform="matrix(0.05555555555555555,0,0,0.05555555555555555,91,0)" xlink:href="#aK"/><use transform="matrix(0.05555555555555555,0,0,0.05555555555555555,102.11111111111111,0)" xlink:href="#aC"/><use transform="matrix(0.05555555555555555,0,0,0.05555555555555555,112.11111111111111,0)" xlink:href="#aG"/><use transform="matrix(0.05555555555555555,0,0,0.05555555555555555,123.22222222222224,0)" xlink:href="#au"/><use transform="matrix(0.05555555555555555,0,0,0.05555555555555555,139.83333333333334,0)" xlink:href="#aF"/><use transform="matrix(0.05555555555555555,0,0,0.05555555555555555,150.94444444444446,0)" xlink:href="#aK"/><use transform="matrix(0.05555555555555555,0,0,0.05555555555555555,162.05555555555557,0)" xlink:href="#aC"/><use transform="matrix(0.05555555555555555,0,0,0.05555555555555555,172.05555555555557,0)" xlink:href="#aG"/><use transform="matrix(0.05555555555555555,0,0,0.05555555555555555,183.16666666666669,0)" xlink:href="#aD"/><use transform="matrix(0.05555555555555555,0,0,0.05555555555555555,189.7777777777778,0)" xlink:href="#aD"/><use transform="matrix(0.05555555555555555,0,0,0.05555555555555555,196.3888888888889,0)" xlink:href="#av"/><use transform="matrix(0.05555555555555555,0,0,0.05555555555555555,207.50000000000003,0)" xlink:href="#aC"/><use transform="matrix(0.05555555555555555,0,0,0.05555555555555555,217.50000000000003,0)" xlink:href="#ax"/><use transform="matrix(0.05555555555555555,0,0,0.05555555555555555,223.05555555555557,0)" xlink:href="#aE"/><use transform="matrix(0.05555555555555555,0,0,0.05555555555555555,227.44444444444446,0)" xlink:href="#aG"/><use transform="matrix(0.05555555555555555,0,0,0.05555555555555555,238.5555555555556,0)" xlink:href="#as"/></g><g id="U"><use transform="matrix(0.05555555555555555,0,0,0.05555555555555555,0,0)" xlink:href="#aD"/><use transform="matrix(0.05555555555555555,0,0,0.05555555555555555,6.611111111111111,0)" xlink:href="#av"/><use transform="matrix(0.05555555555555555,0,0,0.05555555555555555,17.72222222222222,0)" xlink:href="#aB"/><use transform="matrix(0.05555555555555555,0,0,0.05555555555555555,27.72222222222222,0)" xlink:href="#aE"/><use transform="matrix(0.05555555555555555,0,0,0.05555555555555555,32.11111111111111,0)" xlink:href="#aB"/><use transform="matrix(0.05555555555555555,0,0,0.05555555555555555,42.11111111111111,0)" xlink:href="#ax"/><use transform="matrix(0.05555555555555555,0,0,0.05555555555555555,47.666666666666664,0)" xlink:href="#at"/><use transform="matrix(0.05555555555555555,0,0,0.05555555555555555,58.77777777777777,0)" xlink:href="#as"/><use transform="matrix(0.05555555555555555,0,0,0.05555555555555555,69.88888888888889,0)" xlink:href="#aC"/><use transform="matrix(0.05555555555555555,0,0,0.05555555555555555,79.88888888888889,0)" xlink:href="#av"/><use transform="matrix(0.05555555555555555,0,0,0.05555555555555555,91,0)" xlink:href="#aK"/><use transform="matrix(0.05555555555555555,0,0,0.05555555555555555,102.11111111111111,0)" xlink:href="#aC"/><use transform="matrix(0.05555555555555555,0,0,0.05555555555555555,112.11111111111111,0)" xlink:href="#aG"/><use transform="matrix(0.05555555555555555,0,0,0.05555555555555555,123.22222222222224,0)" xlink:href="#au"/><use transform="matrix(0.05555555555555555,0,0,0.05555555555555555,139.83333333333334,0)" xlink:href="#aF"/><use transform="matrix(0.05555555555555555,0,0,0.05555555555555555,150.94444444444446,0)" xlink:href="#aK"/><use transform="matrix(0.05555555555555555,0,0,0.05555555555555555,162.05555555555557,0)" xlink:href="#aF"/><use transform="matrix(0.05555555555555555,0,0,0.05555555555555555,173.16666666666669,0)" xlink:href="#aD"/><use transform="matrix(0.05555555555555555,0,0,0.05555555555555555,179.7777777777778,0)" xlink:href="#av"/><use transform="matrix(0.05555555555555555,0,0,0.05555555555555555,190.8888888888889,0)" xlink:href="#aA"/><use transform="matrix(0.05555555555555555,0,0,0.05555555555555555,202.00000000000003,0)" xlink:href="#aE"/><use transform="matrix(0.05555555555555555,0,0,0.05555555555555555,206.3888888888889,0)" xlink:href="#aC"/><use transform="matrix(0.05555555555555555,0,0,0.05555555555555555,216.3888888888889,0)" xlink:href="#ax"/><use transform="matrix(0.05555555555555555,0,0,0.05555555555555555,221.94444444444446,0)" xlink:href="#aE"/><use transform="matrix(0.05555555555555555,0,0,0.05555555555555555,226.33333333333334,0)" xlink:href="#aG"/><use transform="matrix(0.05555555555555555,0,0,0.05555555555555555,237.44444444444449,0)" xlink:href="#as"/></g><g id="V"><use transform="matrix(0.05555555555555555,0,0,0.05555555555555555,0,0)" xlink:href="#bm"/><use transform="matrix(0.05555555555555555,0,0,0.05555555555555555,14.388888888888888,0)" xlink:href="#bs"/><use transform="matrix(0.05555555555555555,0,0,0.05555555555555555,25.5,0)" xlink:href="#aG"/><use transform="matrix(0.05555555555555555,0,0,0.05555555555555555,36.611111111111114,0)" xlink:href="#aM"/><use transform="matrix(0.05555555555555555,0,0,0.05555555555555555,41,0)" xlink:href="#av"/><use transform="matrix(0.05555555555555555,0,0,0.05555555555555555,52.111111111111114,0)" xlink:href="#aK"/><use transform="matrix(0.05555555555555555,0,0,0.05555555555555555,63.22222222222223,0)" xlink:href="#aC"/><use transform="matrix(0.05555555555555555,0,0,0.05555555555555555,73.22222222222223,0)" xlink:href="#av"/><use transform="matrix(0.05555555555555555,0,0,0.05555555555555555,84.33333333333334,0)" xlink:href="#aM"/><use transform="matrix(0.05555555555555555,0,0,0.05555555555555555,88.72222222222223,0)" xlink:href="#aM"/><use transform="matrix(0.05555555555555555,0,0,0.05555555555555555,93.11111111111111,0)" xlink:href="#aK"/><use transform="matrix(0.05555555555555555,0,0,0.05555555555555555,104.22222222222223,0)" xlink:href="#aC"/><use transform="matrix(0.05555555555555555,0,0,0.05555555555555555,114.22222222222224,0)" xlink:href="#at"/><use transform="matrix(0.05555555555555555,0,0,0.05555555555555555,125.33333333333336,0)" xlink:href="#aF"/><use transform="matrix(0.05555555555555555,0,0,0.05555555555555555,136.44444444444446,0)" xlink:href="#at"/><use transform="matrix(0.05555555555555555,0,0,0.05555555555555555,147.55555555555557,0)" xlink:href="#aC"/><use transform="matrix(0.05555555555555555,0,0,0.05555555555555555,157.55555555555557,0)" xlink:href="#aE"/><use transform="matrix(0.05555555555555555,0,0,0.05555555555555555,161.94444444444446,0)" xlink:href="#ax"/><use transform="matrix(0.05555555555555555,0,0,0.05555555555555555,167.5,0)" xlink:href="#at"/><use transform="matrix(0.05555555555555555,0,0,0.05555555555555555,178.61111111111111,0)" xlink:href="#as"/><use transform="matrix(0.05555555555555555,0,0,0.05555555555555555,189.72222222222223,0)" xlink:href="#aC"/><use transform="matrix(0.05555555555555555,0,0,0.05555555555555555,199.72222222222223,0)" xlink:href="#av"/><use transform="matrix(0.05555555555555555,0,0,0.05555555555555555,210.83333333333334,0)" xlink:href="#aK"/><use transform="matrix(0.05555555555555555,0,0,0.05555555555555555,221.94444444444446,0)" xlink:href="#aC"/><use transform="matrix(0.05555555555555555,0,0,0.05555555555555555,231.94444444444449,0)" xlink:href="#aG"/><use transform="matrix(0.05555555555555555,0,0,0.05555555555555555,243.0555555555556,0)" xlink:href="#au"/><use transform="matrix(0.05555555555555555,0,0,0.05555555555555555,259.6666666666667,0)" xlink:href="#aF"/></g><g id="W"><use transform="matrix(0.05555555555555555,0,0,0.05555555555555555,0,0)" xlink:href="#bm"/><use transform="matrix(0.05555555555555555,0,0,0.05555555555555555,14.388888888888888,0)" xlink:href="#bs"/><use transform="matrix(0.05555555555555555,0,0,0.05555555555555555,25.5,0)" xlink:href="#aG"/><use transform="matrix(0.05555555555555555,0,0,0.05555555555555555,36.611111111111114,0)" xlink:href="#aM"/><use transform="matrix(0.05555555555555555,0,0,0.05555555555555555,41,0)" xlink:href="#av"/><use transform="matrix(0.05555555555555555,0,0,0.05555555555555555,52.111111111111114,0)" xlink:href="#aK"/><use transform="matrix(0.05555555555555555,0,0,0.05555555555555555,63.22222222222223,0)" xlink:href="#aC"/><use transform="matrix(0.05555555555555555,0,0,0.05555555555555555,73.22222222222223,0)" xlink:href="#av"/><use transform="matrix(0.05555555555555555,0,0,0.05555555555555555,84.33333333333334,0)" xlink:href="#aM"/><use transform="matrix(0.05555555555555555,0,0,0.05555555555555555,88.72222222222223,0)" xlink:href="#aM"/><use transform="matrix(0.05555555555555555,0,0,0.05555555555555555,93.11111111111111,0)" xlink:href="#aK"/><use transform="matrix(0.05555555555555555,0,0,0.05555555555555555,104.22222222222223,0)" xlink:href="#aB"/><use transform="matrix(0.05555555555555555,0,0,0.05555555555555555,114.22222222222224,0)" xlink:href="#av"/><use transform="matrix(0.05555555555555555,0,0,0.05555555555555555,125.33333333333336,0)" xlink:href="#aD"/><use transform="matrix(0.05555555555555555,0,0,0.05555555555555555,131.94444444444446,0)" xlink:href="#aE"/><use transform="matrix(0.05555555555555555,0,0,0.05555555555555555,136.33333333333334,0)" xlink:href="#av"/><use transform="matrix(0.05555555555555555,0,0,0.05555555555555555,147.44444444444446,0)" xlink:href="#aB"/><use transform="matrix(0.05555555555555555,0,0,0.05555555555555555,157.44444444444446,0)" xlink:href="#aK"/><use transform="matrix(0.05555555555555555,0,0,0.05555555555555555,168.55555555555557,0)" xlink:href="#aD"/><use transform="matrix(0.05555555555555555,0,0,0.05555555555555555,175.16666666666669,0)" xlink:href="#av"/><use transform="matrix(0.05555555555555555,0,0,0.05555555555555555,186.2777777777778,0)" xlink:href="#aB"/><use transform="matrix(0.05555555555555555,0,0,0.05555555555555555,196.2777777777778,0)" xlink:href="#aE"/><use transform="matrix(0.05555555555555555,0,0,0.05555555555555555,200.66666666666669,0)" xlink:href="#aB"/><use transform="matrix(0.05555555555555555,0,0,0.05555555555555555,210.66666666666669,0)" xlink:href="#ax"/><use transform="matrix(0.05555555555555555,0,0,0.05555555555555555,216.22222222222223,0)" xlink:href="#at"/><use transform="matrix(0.05555555555555555,0,0,0.05555555555555555,227.33333333333334,0)" xlink:href="#as"/><use transform="matrix(0.05555555555555555,0,0,0.05555555555555555,238.44444444444449,0)" xlink:href="#aC"/><use transform="matrix(0.05555555555555555,0,0,0.05555555555555555,248.44444444444449,0)" xlink:href="#av"/></g><filter id="P" filterUnits="objectBoundingBox" x="-.01" y="-.01" width="1.03" height="1.04"><feOffset result="offOut" in="SourceAlpha" dx="2.12" dy="2.12"/><feGaussianBlur result="blurOut" in="offOut" stdDeviation="2.5"/><feColorMatrix result="colorOut" in="blurOut" values="0 0 0 0 0 0 0 0 0 0 0 0 0 0 0 0 0 0 0.5019607843137255 0"/><feBlend in="SourceGraphic" in2="colorOut"/></filter><path fill="#fff" d="M147 0H94L2-248h55l64 206c17-72 42-137 63-206h54" id="bt"/><path fill="#fff" d="M195-6C206 82 75 100 31 46c-4-6-6-13-8-21l49-6c3 16 16 24 34 25 40 0 42-37 40-79-11 22-30 35-61 35-53 0-70-43-70-97 0-56 18-96 73-97 30 0 46 14 59 34l2-30h47zm-90-29c32 0 41-27 41-63 0-35-9-62-40-62-32 0-39 29-40 63 0 36 9 62 39 62" id="bu"/><g id="X"><use transform="matrix(0.05555555555555555,0,0,0.05555555555555555,0,0)" xlink:href="#bt"/><use transform="matrix(0.05555555555555555,0,0,0.05555555555555555,11.833333333333332,0)" xlink:href="#bi"/><use transform="matrix(0.05555555555555555,0,0,0.05555555555555555,24,0)" xlink:href="#bf"/><use transform="matrix(0.05555555555555555,0,0,0.05555555555555555,29.55555555555556,0)" xlink:href="#bd"/><use transform="matrix(0.05555555555555555,0,0,0.05555555555555555,36.16666666666667,0)" xlink:href="#be"/><use transform="matrix(0.05555555555555555,0,0,0.05555555555555555,47.277777777777786,0)" xlink:href="#bu"/><use transform="matrix(0.05555555555555555,0,0,0.05555555555555555,59.44444444444446,0)" xlink:href="#aS"/><use transform="matrix(0.05555555555555555,0,0,0.05555555555555555,70.55555555555556,0)" xlink:href="#bq"/><use transform="matrix(0.05555555555555555,0,0,0.05555555555555555,84.94444444444444,0)" xlink:href="#bf"/><use transform="matrix(0.05555555555555555,0,0,0.05555555555555555,90.5,0)" xlink:href="#be"/><use transform="matrix(0.05555555555555555,0,0,0.05555555555555555,101.61111111111111,0)" xlink:href="#aR"/><use transform="matrix(0.05555555555555555,0,0,0.05555555555555555,119.38888888888889,0)" xlink:href="#br"/><use transform="matrix(0.05555555555555555,0,0,0.05555555555555555,131.55555555555554,0)" xlink:href="#aT"/><use transform="matrix(0.05555555555555555,0,0,0.05555555555555555,144.88888888888889,0)" xlink:href="#aS"/><use transform="matrix(0.05555555555555555,0,0,0.05555555555555555,156,0)" xlink:href="#aU"/><use transform="matrix(0.05555555555555555,0,0,0.05555555555555555,163.77777777777777,0)" xlink:href="#aQ"/><use transform="matrix(0.05555555555555555,0,0,0.05555555555555555,169.33333333333331,0)" xlink:href="#aS"/><use transform="matrix(0.05555555555555555,0,0,0.05555555555555555,180.44444444444443,0)" xlink:href="#aV"/><path fill="#fff" d="M-1 1.07h193.56v2.1H-1z"/></g><filter id="Y" filterUnits="objectBoundingBox" x="-.01" y="-.04" width="1.03" height="1.14"><feOffset result="offOut" in="SourceAlpha" dx="2.12" dy="2.12"/><feGaussianBlur result="blurOut" in="offOut" stdDeviation="2.5"/><feColorMatrix result="colorOut" in="blurOut" values="0 0 0 0 0 0 0 0 0 0 0 0 0 0 0 0 0 0 0.5019607843137255 0"/><feBlend in="SourceGraphic" in2="colorOut"/></filter><g id="Z"><use transform="matrix(0.05555555555555555,0,0,0.05555555555555555,0,0)" xlink:href="#bt"/><use transform="matrix(0.05555555555555555,0,0,0.05555555555555555,11.833333333333332,0)" xlink:href="#bi"/><use transform="matrix(0.05555555555555555,0,0,0.05555555555555555,24,0)" xlink:href="#bf"/><use transform="matrix(0.05555555555555555,0,0,0.05555555555555555,29.55555555555556,0)" xlink:href="#bd"/><use transform="matrix(0.05555555555555555,0,0,0.05555555555555555,36.16666666666667,0)" xlink:href="#be"/><use transform="matrix(0.05555555555555555,0,0,0.05555555555555555,47.277777777777786,0)" xlink:href="#bu"/><use transform="matrix(0.05555555555555555,0,0,0.05555555555555555,59.44444444444446,0)" xlink:href="#aS"/><use transform="matrix(0.05555555555555555,0,0,0.05555555555555555,70.55555555555556,0)" xlink:href="#bq"/><use transform="matrix(0.05555555555555555,0,0,0.05555555555555555,84.94444444444444,0)" xlink:href="#bf"/><use transform="matrix(0.05555555555555555,0,0,0.05555555555555555,90.5,0)" xlink:href="#be"/><use transform="matrix(0.05555555555555555,0,0,0.05555555555555555,101.61111111111111,0)" xlink:href="#aR"/><use transform="matrix(0.05555555555555555,0,0,0.05555555555555555,119.38888888888889,0)" xlink:href="#br"/><use transform="matrix(0.05555555555555555,0,0,0.05555555555555555,131.55555555555554,0)" xlink:href="#aT"/><use transform="matrix(0.05555555555555555,0,0,0.05555555555555555,144.88888888888889,0)" xlink:href="#bd"/><use transform="matrix(0.05555555555555555,0,0,0.05555555555555555,151.5,0)" xlink:href="#aQ"/><use transform="matrix(0.05555555555555555,0,0,0.05555555555555555,157.05555555555554,0)" xlink:href="#aR"/><use transform="matrix(0.05555555555555555,0,0,0.05555555555555555,174.83333333333331,0)" xlink:href="#bg"/><use transform="matrix(0.05555555555555555,0,0,0.05555555555555555,186.99999999999997,0)" xlink:href="#bf"/><use transform="matrix(0.05555555555555555,0,0,0.05555555555555555,192.55555555555551,0)" xlink:href="#bg"/><use transform="matrix(0.05555555555555555,0,0,0.05555555555555555,204.72222222222217,0)" xlink:href="#aV"/><use transform="matrix(0.05555555555555555,0,0,0.05555555555555555,215.8333333333333,0)" xlink:href="#aT"/><use transform="matrix(0.05555555555555555,0,0,0.05555555555555555,229.16666666666666,0)" xlink:href="#aS"/><use transform="matrix(0.05555555555555555,0,0,0.05555555555555555,240.27777777777777,0)" xlink:href="#aU"/><use transform="matrix(0.05555555555555555,0,0,0.05555555555555555,248.0555555555555,0)" xlink:href="#aQ"/><use transform="matrix(0.05555555555555555,0,0,0.05555555555555555,253.61111111111106,0)" xlink:href="#aS"/><use transform="matrix(0.05555555555555555,0,0,0.05555555555555555,264.7222222222222,0)" xlink:href="#aV"/><path fill="#fff" d="M-1 1.07h277.83v2.1H-1z"/></g><g id="aa"><use transform="matrix(0.05555555555555555,0,0,0.05555555555555555,0,0)" xlink:href="#bq"/><use transform="matrix(0.05555555555555555,0,0,0.05555555555555555,14.388888888888888,0)" xlink:href="#bg"/><use transform="matrix(0.05555555555555555,0,0,0.05555555555555555,26.555555555555554,0)" xlink:href="#aU"/><use transform="matrix(0.05555555555555555,0,0,0.05555555555555555,34.33333333333333,0)" xlink:href="#aU"/><use transform="matrix(0.05555555555555555,0,0,0.05555555555555555,42.11111111111111,0)" xlink:href="#aS"/><use transform="matrix(0.05555555555555555,0,0,0.05555555555555555,53.222222222222214,0)" xlink:href="#bc"/><use transform="matrix(0.05555555555555555,0,0,0.05555555555555555,65.38888888888889,0)" xlink:href="#bd"/><use transform="matrix(0.05555555555555555,0,0,0.05555555555555555,72,0)" xlink:href="#bq"/><use transform="matrix(0.05555555555555555,0,0,0.05555555555555555,86.38888888888889,0)" xlink:href="#bf"/><use transform="matrix(0.05555555555555555,0,0,0.05555555555555555,91.94444444444444,0)" xlink:href="#be"/><use transform="matrix(0.05555555555555555,0,0,0.05555555555555555,103.05555555555556,0)" xlink:href="#aR"/><use transform="matrix(0.05555555555555555,0,0,0.05555555555555555,120.83333333333336,0)" xlink:href="#br"/><use transform="matrix(0.05555555555555555,0,0,0.05555555555555555,133,0)" xlink:href="#aT"/><use transform="matrix(0.05555555555555555,0,0,0.05555555555555555,146.33333333333334,0)" xlink:href="#bd"/><use transform="matrix(0.05555555555555555,0,0,0.05555555555555555,152.94444444444446,0)" xlink:href="#aQ"/><use transform="matrix(0.05555555555555555,0,0,0.05555555555555555,158.5,0)" xlink:href="#aR"/><use transform="matrix(0.05555555555555555,0,0,0.05555555555555555,176.27777777777777,0)" xlink:href="#bg"/><use transform="matrix(0.05555555555555555,0,0,0.05555555555555555,188.44444444444443,0)" xlink:href="#bf"/><use transform="matrix(0.05555555555555555,0,0,0.05555555555555555,193.99999999999997,0)" xlink:href="#bg"/><use transform="matrix(0.05555555555555555,0,0,0.05555555555555555,206.16666666666663,0)" xlink:href="#aV"/><use transform="matrix(0.05555555555555555,0,0,0.05555555555555555,217.27777777777774,0)" xlink:href="#aT"/><use transform="matrix(0.05555555555555555,0,0,0.05555555555555555,230.6111111111111,0)" xlink:href="#aS"/><use transform="matrix(0.05555555555555555,0,0,0.05555555555555555,241.7222222222222,0)" xlink:href="#aU"/><use transform="matrix(0.05555555555555555,0,0,0.05555555555555555,249.5,0)" xlink:href="#aQ"/><use transform="matrix(0.05555555555555555,0,0,0.05555555555555555,255.0555555555555,0)" xlink:href="#aS"/><use transform="matrix(0.05555555555555555,0,0,0.05555555555555555,266.16666666666663,0)" xlink:href="#aV"/><path fill="#fff" d="M-1 1.07h279.28v2.1H-1z"/></g><g id="ac"><use transform="matrix(0.05555555555555555,0,0,0.05555555555555555,0,0)" xlink:href="#bn"/><use transform="matrix(0.05555555555555555,0,0,0.05555555555555555,11.11111111111111,0)" xlink:href="#aE"/><use transform="matrix(0.05555555555555555,0,0,0.05555555555555555,15.5,0)" xlink:href="#at"/><use transform="matrix(0.05555555555555555,0,0,0.05555555555555555,26.61111111111111,0)" xlink:href="#aB"/><use transform="matrix(0.05555555555555555,0,0,0.05555555555555555,36.611111111111114,0)" xlink:href="#aK"/><use transform="matrix(0.05555555555555555,0,0,0.05555555555555555,47.72222222222223,0)" xlink:href="#aC"/><use transform="matrix(0.05555555555555555,0,0,0.05555555555555555,57.72222222222223,0)" xlink:href="#aI"/><use transform="matrix(0.05555555555555555,0,0,0.05555555555555555,68.83333333333334,0)" xlink:href="#aD"/><use transform="matrix(0.05555555555555555,0,0,0.05555555555555555,75.44444444444446,0)" xlink:href="#aD"/><use transform="matrix(0.05555555555555555,0,0,0.05555555555555555,82.05555555555557,0)" xlink:href="#av"/><use transform="matrix(0.05555555555555555,0,0,0.05555555555555555,93.16666666666669,0)" xlink:href="#as"/><use transform="matrix(0.05555555555555555,0,0,0.05555555555555555,104.2777777777778,0)" xlink:href="#ax"/></g><g id="ad"><use transform="matrix(0.05555555555555555,0,0,0.05555555555555555,0,0)" xlink:href="#bn"/><use transform="matrix(0.05555555555555555,0,0,0.05555555555555555,11.11111111111111,0)" xlink:href="#aD"/><use transform="matrix(0.05555555555555555,0,0,0.05555555555555555,17.72222222222222,0)" xlink:href="#aE"/><use transform="matrix(0.05555555555555555,0,0,0.05555555555555555,22.11111111111111,0)" xlink:href="#aA"/><use transform="matrix(0.05555555555555555,0,0,0.05555555555555555,33.22222222222222,0)" xlink:href="#aJ"/><use transform="matrix(0.05555555555555555,0,0,0.05555555555555555,44.33333333333333,0)" xlink:href="#av"/><use transform="matrix(0.05555555555555555,0,0,0.05555555555555555,55.44444444444444,0)" xlink:href="#aK"/><use transform="matrix(0.05555555555555555,0,0,0.05555555555555555,66.55555555555556,0)" xlink:href="#bn"/><use transform="matrix(0.05555555555555555,0,0,0.05555555555555555,77.66666666666667,0)" xlink:href="#at"/><use transform="matrix(0.05555555555555555,0,0,0.05555555555555555,88.77777777777779,0)" xlink:href="#aM"/><use transform="matrix(0.05555555555555555,0,0,0.05555555555555555,93.16666666666667,0)" xlink:href="#at"/><use transform="matrix(0.05555555555555555,0,0,0.05555555555555555,104.27777777777779,0)" xlink:href="#as"/><use transform="matrix(0.05555555555555555,0,0,0.05555555555555555,115.38888888888891,0)" xlink:href="#aC"/><use transform="matrix(0.05555555555555555,0,0,0.05555555555555555,125.38888888888891,0)" xlink:href="#av"/></g><g id="ae"><use transform="matrix(0.05555555555555555,0,0,0.05555555555555555,0,0)" xlink:href="#aC"/><use transform="matrix(0.05555555555555555,0,0,0.05555555555555555,10,0)" xlink:href="#at"/><use transform="matrix(0.05555555555555555,0,0,0.05555555555555555,21.11111111111111,0)" xlink:href="#aF"/><use transform="matrix(0.05555555555555555,0,0,0.05555555555555555,32.22222222222222,0)" xlink:href="#at"/><use transform="matrix(0.05555555555555555,0,0,0.05555555555555555,43.33333333333333,0)" xlink:href="#aC"/><use transform="matrix(0.05555555555555555,0,0,0.05555555555555555,53.33333333333333,0)" xlink:href="#aE"/><use transform="matrix(0.05555555555555555,0,0,0.05555555555555555,57.72222222222222,0)" xlink:href="#ax"/><use transform="matrix(0.05555555555555555,0,0,0.05555555555555555,63.27777777777777,0)" xlink:href="#at"/><use transform="matrix(0.05555555555555555,0,0,0.05555555555555555,74.38888888888889,0)" xlink:href="#as"/><use transform="matrix(0.05555555555555555,0,0,0.05555555555555555,85.5,0)" xlink:href="#aC"/><use transform="matrix(0.05555555555555555,0,0,0.05555555555555555,95.5,0)" xlink:href="#av"/><use transform="matrix(0.05555555555555555,0,0,0.05555555555555555,106.61111111111111,0)" xlink:href="#aK"/><use transform="matrix(0.05555555555555555,0,0,0.05555555555555555,117.72222222222224,0)" xlink:href="#aC"/><use transform="matrix(0.05555555555555555,0,0,0.05555555555555555,127.72222222222224,0)" xlink:href="#aG"/><use transform="matrix(0.05555555555555555,0,0,0.05555555555555555,138.83333333333334,0)" xlink:href="#au"/><use transform="matrix(0.05555555555555555,0,0,0.05555555555555555,155.44444444444446,0)" xlink:href="#aF"/><use transform="matrix(0.05555555555555555,0,0,0.05555555555555555,166.55555555555557,0)" xlink:href="#av"/><use transform="matrix(0.05555555555555555,0,0,0.05555555555555555,177.66666666666669,0)" xlink:href="#as"/><use transform="matrix(0.05555555555555555,0,0,0.05555555555555555,188.7777777777778,0)" xlink:href="#aB"/><use transform="matrix(0.05555555555555555,0,0,0.05555555555555555,198.7777777777778,0)" xlink:href="#at"/><use transform="matrix(0.05555555555555555,0,0,0.05555555555555555,209.8888888888889,0)" xlink:href="#ax"/><use transform="matrix(0.05555555555555555,0,0,0.05555555555555555,215.44444444444446,0)" xlink:href="#aE"/><use transform="matrix(0.05555555555555555,0,0,0.05555555555555555,219.83333333333334,0)" xlink:href="#aG"/><use transform="matrix(0.05555555555555555,0,0,0.05555555555555555,230.94444444444449,0)" xlink:href="#as"/></g><filter id="ab" filterUnits="objectBoundingBox" x="-.01" y="-.02" width="1.03" height="1.07"><feOffset result="offOut" in="SourceAlpha" dx="2.12" dy="2.12"/><feGaussianBlur result="blurOut" in="offOut" stdDeviation="2.5"/><feColorMatrix result="colorOut" in="blurOut" values="0 0 0 0 0 0 0 0 0 0 0 0 0 0 0 0 0 0 0.5019607843137255 0"/><feBlend in="SourceGraphic" in2="colorOut"/></filter><g id="af"><use transform="matrix(0.05555555555555555,0,0,0.05555555555555555,0,0)" xlink:href="#bq"/><use transform="matrix(0.05555555555555555,0,0,0.05555555555555555,14.388888888888888,0)" xlink:href="#bg"/><use transform="matrix(0.05555555555555555,0,0,0.05555555555555555,26.555555555555554,0)" xlink:href="#aU"/><use transform="matrix(0.05555555555555555,0,0,0.05555555555555555,34.33333333333333,0)" xlink:href="#aU"/><use transform="matrix(0.05555555555555555,0,0,0.05555555555555555,42.11111111111111,0)" xlink:href="#aS"/><use transform="matrix(0.05555555555555555,0,0,0.05555555555555555,53.222222222222214,0)" xlink:href="#bc"/><use transform="matrix(0.05555555555555555,0,0,0.05555555555555555,65.38888888888889,0)" xlink:href="#bd"/><use transform="matrix(0.05555555555555555,0,0,0.05555555555555555,72,0)" xlink:href="#bq"/><use transform="matrix(0.05555555555555555,0,0,0.05555555555555555,86.38888888888889,0)" xlink:href="#bf"/><use transform="matrix(0.05555555555555555,0,0,0.05555555555555555,91.94444444444444,0)" xlink:href="#be"/><use transform="matrix(0.05555555555555555,0,0,0.05555555555555555,103.05555555555556,0)" xlink:href="#aR"/><use transform="matrix(0.05555555555555555,0,0,0.05555555555555555,120.83333333333336,0)" xlink:href="#br"/><use transform="matrix(0.05555555555555555,0,0,0.05555555555555555,133,0)" xlink:href="#aT"/><use transform="matrix(0.05555555555555555,0,0,0.05555555555555555,146.33333333333334,0)" xlink:href="#aS"/><use transform="matrix(0.05555555555555555,0,0,0.05555555555555555,157.44444444444446,0)" xlink:href="#aU"/><use transform="matrix(0.05555555555555555,0,0,0.05555555555555555,165.22222222222223,0)" xlink:href="#aQ"/><use transform="matrix(0.05555555555555555,0,0,0.05555555555555555,170.77777777777777,0)" xlink:href="#aS"/><use transform="matrix(0.05555555555555555,0,0,0.05555555555555555,181.88888888888889,0)" xlink:href="#aV"/><path fill="#fff" d="M-1 1.07h195v2.1H-1z"/></g></defs></g></svg>