<svg version="1.1" xmlns="http://www.w3.org/2000/svg" xmlns:xlink="http://www.w3.org/1999/xlink" width="218" height="170"><style xmlns="http://www.w3.org/1999/xhtml"></style><defs/><g transform="translate(0,0)"><g><rect fill="#FFFFFF" stroke="none" x="0" y="0" width="218" height="170"/></g><g transform="translate(0,0) matrix(1,0,0,1,80,30)"><g transform="translate(4,4) scale(1.009090909090909,1.0333333333333334)"><g><g transform="translate(0,0) scale(1.1,0.3)"><g><path fill="#000000" stroke="none" stroke-dasharray="1.7976931348623157e+308" d="M 0 0 L 100 0 Q 100 0 100 0 L 100 100 Q 100 100 100 100 L 0 100 Q 0 100 0 100 L 0 0 Q 0 0 0 0 Z" opacity="0.294117647"/><g transform="scale(0.9090909090909091,3.3333333333333335)"><path fill="none" stroke="none" stroke-dasharray="1.7976931348623157e+308" d="M 0 0 L 110.00000000000001 0 Q 110.00000000000001 0 110.00000000000001 0 L 110.00000000000001 30 Q 110.00000000000001 30 110.00000000000001 30 L 0 30 Q 0 30 0 30 L 0 0 Q 0 0 0 0 Z"/><path fill="none" stroke="rgb(0,0,0)" stroke-dasharray="1.7976931348623157e+308" d="M 0 0 L 110.00000000000001 0 Q 110.00000000000001 0 110.00000000000001 0 L 110.00000000000001 30 Q 110.00000000000001 30 110.00000000000001 30 L 0 30 Q 0 30 0 30 L 0 0 Q 0 0 0 0 Z" stroke-opacity="0" stroke-miterlimit="10" stroke-width="2" opacity="0.294117647"/></g></g></g></g></g><g><g transform="translate(0,0) scale(1.1,0.3)"><g><path fill="#FFFFFF" stroke="none" stroke-dasharray="1.7976931348623157e+308" d="M 0 0 L 100 0 Q 100 0 100 0 L 100 100 Q 100 100 100 100 L 0 100 Q 0 100 0 100 L 0 0 Q 0 0 0 0 Z"/><g transform="scale(0.9090909090909091,3.3333333333333335)"><path fill="none" stroke="none" stroke-dasharray="1.7976931348623157e+308" d="M 0 0 L 110.00000000000001 0 Q 110.00000000000001 0 110.00000000000001 0 L 110.00000000000001 30 Q 110.00000000000001 30 110.00000000000001 30 L 0 30 Q 0 30 0 30 L 0 0 Q 0 0 0 0 Z"/><path fill="none" stroke="#000000" stroke-dasharray="1.7976931348623157e+308" d="M 0 0 L 110.00000000000001 0 Q 110.00000000000001 0 110.00000000000001 0 L 110.00000000000001 30 Q 110.00000000000001 30 110.00000000000001 30 L 0 30 Q 0 30 0 30 L 0 0 Q 0 0 0 0 Z" stroke-miterlimit="10" stroke-width="2"/></g></g></g></g></g><g transform="matrix(1,0,0,1,88,38)"><g><g><rect fill="rgb(0,0,0)" stroke="none" x="0" y="0" width="94" height="30" fill-opacity="0"/></g></g><g><g><rect fill="rgb(0,0,0)" stroke="none" x="0" y="0" width="94" height="14" fill-opacity="0"/></g></g><g><g><rect fill="rgb(0,0,0)" stroke="none" x="26.984375" y="0" width="40" height="14" fill-opacity="0"/></g><text fill="rgb(0, 0, 0)" stroke="none" font-family="Arial" font-size="12px" font-style="normal" font-weight="normal" text-decoration="" line-height="14px" x="26.984375" y="11">Subject</text><rect fill="rgb(0, 0, 0)" stroke="none" x="26.984375" y="12" width="40.03125" height="1"/></g></g><g transform="translate(0,0) matrix(1,0,0,1,80,60)"><g transform="translate(4,4) scale(1.009090909090909,1.011111111111111)"><g><g transform="translate(0,0) scale(1.1,0.9)"><g><path fill="#000000" stroke="none" stroke-dasharray="1.7976931348623157e+308" d="M 0 0 L 100 0 Q 100 0 100 0 L 100 100 Q 100 100 100 100 L 0 100 Q 0 100 0 100 L 0 0 Q 0 0 0 0 Z" opacity="0.294117647"/><g transform="scale(0.9090909090909091,1.1111111111111112)"><path fill="none" stroke="none" stroke-dasharray="1.7976931348623157e+308" d="M 0 0 L 110.00000000000001 0 Q 110.00000000000001 0 110.00000000000001 0 L 110.00000000000001 90 Q 110.00000000000001 90 110.00000000000001 90 L 0 90 Q 0 90 0 90 L 0 0 Q 0 0 0 0 Z"/><path fill="none" stroke="rgb(0,0,0)" stroke-dasharray="1.7976931348623157e+308" d="M 0 0 L 110.00000000000001 0 Q 110.00000000000001 0 110.00000000000001 0 L 110.00000000000001 90 Q 110.00000000000001 90 110.00000000000001 90 L 0 90 Q 0 90 0 90 L 0 0 Q 0 0 0 0 Z" stroke-opacity="0" stroke-miterlimit="10" stroke-width="2" opacity="0.294117647"/></g></g></g></g></g><g><g transform="translate(0,0) scale(1.1,0.9)"><g><path fill="#FFFFFF" stroke="none" stroke-dasharray="1.7976931348623157e+308" d="M 0 0 L 100 0 Q 100 0 100 0 L 100 100 Q 100 100 100 100 L 0 100 Q 0 100 0 100 L 0 0 Q 0 0 0 0 Z"/><g transform="scale(0.9090909090909091,1.1111111111111112)"><path fill="none" stroke="none" stroke-dasharray="1.7976931348623157e+308" d="M 0 0 L 110.00000000000001 0 Q 110.00000000000001 0 110.00000000000001 0 L 110.00000000000001 90 Q 110.00000000000001 90 110.00000000000001 90 L 0 90 Q 0 90 0 90 L 0 0 Q 0 0 0 0 Z"/><path fill="none" stroke="#000000" stroke-dasharray="1.7976931348623157e+308" d="M 0 0 L 110.00000000000001 0 Q 110.00000000000001 0 110.00000000000001 0 L 110.00000000000001 90 Q 110.00000000000001 90 110.00000000000001 90 L 0 90 Q 0 90 0 90 L 0 0 Q 0 0 0 0 Z" stroke-miterlimit="10" stroke-width="2"/></g></g></g></g></g><g transform="matrix(1,0,0,1,82,62)"><g><g><rect fill="rgb(0,0,0)" stroke="none" x="0" y="0" width="106" height="88" fill-opacity="0"/></g></g><g><g><rect fill="rgb(0,0,0)" stroke="none" x="0" y="0" width="106" height="14" fill-opacity="0"/></g></g><g><g><rect fill="rgb(0,0,0)" stroke="none" x="0" y="0" width="79" height="14" fill-opacity="0"/></g></g><g><g><rect fill="rgb(0,0,0)" stroke="none" x="0" y="0" width="79" height="14" fill-opacity="0"/></g><text fill="rgb(0, 0, 0)" stroke="none" font-family="Arial" font-size="12px" font-style="normal" font-weight="normal" text-decoration="" line-height="14px" x="0" y="11">subject_id</text><text fill="rgb(0, 0, 0)" stroke="none" font-family="Arial" font-size="12px" font-style="normal" font-weight="normal" text-decoration="" line-height="14px" x="54.03125" y="11"> (</text><text fill="rgb(0, 0, 0)" stroke="none" font-family="Arial" font-size="12px" font-style="normal" font-weight="normal" text-decoration="" line-height="14px" x="61.359375" y="11">str</text><text fill="rgb(0, 0, 0)" stroke="none" font-family="Arial" font-size="12px" font-style="normal" font-weight="normal" text-decoration="" line-height="14px" x="74.6875" y="11">)</text></g><g><g><rect fill="rgb(0,0,0)" stroke="none" x="0" y="14" width="106" height="14" fill-opacity="0"/></g></g><g><g><rect fill="rgb(0,0,0)" stroke="none" x="0" y="14" width="45" height="14" fill-opacity="0"/></g></g><g><g><rect fill="rgb(0,0,0)" stroke="none" x="0" y="14" width="45" height="14" fill-opacity="0"/></g><text fill="rgb(153, 153, 153)" stroke="none" font-family="Arial" font-size="12px" font-style="normal" font-weight="normal" text-decoration="" line-height="14px" x="0" y="25">age</text><text fill="rgb(153, 153, 153)" stroke="none" font-family="Arial" font-size="12px" font-style="normal" font-weight="normal" text-decoration="" line-height="14px" x="20.015625" y="25"> (</text><text fill="rgb(153, 153, 153)" stroke="none" font-family="Arial" font-size="12px" font-style="normal" font-weight="normal" text-decoration="" line-height="14px" x="27.34375" y="25">str</text><text fill="rgb(153, 153, 153)" stroke="none" font-family="Arial" font-size="12px" font-style="normal" font-weight="normal" text-decoration="" line-height="14px" x="40.671875" y="25">)</text></g><g><g><rect fill="rgb(0,0,0)" stroke="none" x="0" y="28" width="106" height="14" fill-opacity="0"/></g></g><g><g><rect fill="rgb(0,0,0)" stroke="none" x="0" y="28" width="83" height="14" fill-opacity="0"/></g></g><g><g><rect fill="rgb(0,0,0)" stroke="none" x="0" y="28" width="83" height="14" fill-opacity="0"/></g><text fill="rgb(153, 153, 153)" stroke="none" font-family="Arial" font-size="12px" font-style="normal" font-weight="normal" text-decoration="" line-height="14px" x="0" y="39">description</text><text fill="rgb(153, 153, 153)" stroke="none" font-family="Arial" font-size="12px" font-style="normal" font-weight="normal" text-decoration="" line-height="14px" x="58.03125" y="39"> (</text><text fill="rgb(153, 153, 153)" stroke="none" font-family="Arial" font-size="12px" font-style="normal" font-weight="normal" text-decoration="" line-height="14px" x="65.359375" y="39">str</text><text fill="rgb(153, 153, 153)" stroke="none" font-family="Arial" font-size="12px" font-style="normal" font-weight="normal" text-decoration="" line-height="14px" x="78.6875" y="39">)</text></g><g><g><rect fill="rgb(0,0,0)" stroke="none" x="0" y="42" width="106" height="14" fill-opacity="0"/></g></g><g><g><rect fill="rgb(0,0,0)" stroke="none" x="0" y="42" width="65" height="14" fill-opacity="0"/></g></g><g><g><rect fill="rgb(0,0,0)" stroke="none" x="0" y="42" width="65" height="14" fill-opacity="0"/></g><text fill="rgb(153, 153, 153)" stroke="none" font-family="Arial" font-size="12px" font-style="normal" font-weight="normal" text-decoration="" line-height="14px" x="0" y="53">species</text><text fill="rgb(153, 153, 153)" stroke="none" font-family="Arial" font-size="12px" font-style="normal" font-weight="normal" text-decoration="" line-height="14px" x="40.6875" y="53"> (</text><text fill="rgb(153, 153, 153)" stroke="none" font-family="Arial" font-size="12px" font-style="normal" font-weight="normal" text-decoration="" line-height="14px" x="48.015625" y="53">str</text><text fill="rgb(153, 153, 153)" stroke="none" font-family="Arial" font-size="12px" font-style="normal" font-weight="normal" text-decoration="" line-height="14px" x="61.34375" y="53">)</text></g><g><g><rect fill="rgb(0,0,0)" stroke="none" x="0" y="56" width="106" height="14" fill-opacity="0"/></g></g><g><g><rect fill="rgb(0,0,0)" stroke="none" x="0" y="56" width="74" height="14" fill-opacity="0"/></g></g><g><g><rect fill="rgb(0,0,0)" stroke="none" x="0" y="56" width="74" height="14" fill-opacity="0"/></g><text fill="rgb(153, 153, 153)" stroke="none" font-family="Arial" font-size="12px" font-style="normal" font-weight="normal" text-decoration="" line-height="14px" x="0" y="67">genotype</text><text fill="rgb(153, 153, 153)" stroke="none" font-family="Arial" font-size="12px" font-style="normal" font-weight="normal" text-decoration="" line-height="14px" x="49.375" y="67"> (</text><text fill="rgb(153, 153, 153)" stroke="none" font-family="Arial" font-size="12px" font-style="normal" font-weight="normal" text-decoration="" line-height="14px" x="56.703125" y="67">str</text><text fill="rgb(153, 153, 153)" stroke="none" font-family="Arial" font-size="12px" font-style="normal" font-weight="normal" text-decoration="" line-height="14px" x="70.03125" y="67">)</text></g><g><g><rect fill="rgb(0,0,0)" stroke="none" x="0" y="70" width="106" height="14" fill-opacity="0"/></g></g><g><g><rect fill="rgb(0,0,0)" stroke="none" x="0" y="70" width="43" height="14" fill-opacity="0"/></g></g><g><g><rect fill="rgb(0,0,0)" stroke="none" x="0" y="70" width="43" height="14" fill-opacity="0"/></g><text fill="rgb(153, 153, 153)" stroke="none" font-family="Arial" font-size="12px" font-style="normal" font-weight="normal" text-decoration="" line-height="14px" x="0" y="81">sex</text><text fill="rgb(153, 153, 153)" stroke="none" font-family="Arial" font-size="12px" font-style="normal" font-weight="normal" text-decoration="" line-height="14px" x="18.671875" y="81"> (</text><text fill="rgb(153, 153, 153)" stroke="none" font-family="Arial" font-size="12px" font-style="normal" font-weight="normal" text-decoration="" line-height="14px" x="26" y="81">str</text><text fill="rgb(153, 153, 153)" stroke="none" font-family="Arial" font-size="12px" font-style="normal" font-weight="normal" text-decoration="" line-height="14px" x="39.328125" y="81">)</text></g></g></g></svg>